<svg xmlns="http://www.w3.org/2000/svg" viewBox="0 0 500 500"><g id="freepik--Floor--inject-678"><path id="freepik--floor--inject-678" d="M77.66,246.53c-95.18,55-95.17,144,0,199s249.49,55,344.67,0,95.17-144,0-199S172.84,191.58,77.66,246.53Z" style="fill:#fafafa"></path></g><g id="freepik--Shadows--inject-678"><path id="freepik--Shadow--inject-678" d="M82,460.46,36.24,434.1c-1.62-.94-1.62-2.45,0-3.39l294.65-170a6.52,6.52,0,0,1,5.87,0L382.55,287c1.62.93,1.62,2.45,0,3.39L87.9,460.46A6.52,6.52,0,0,1,82,460.46Z" style="fill:#e0e0e0"></path><ellipse id="freepik--shadow--inject-678" cx="418.38" cy="427.32" rx="56.05" ry="32.36" style="fill:#e0e0e0"></ellipse><path id="freepik--shadow--inject-678" d="M176.6,461l-12.69-7.32c-4-2.31-4-6,0-8.36L335.5,346.63a16,16,0,0,1,14.48,0L362.67,354c4,2.31,4,6.05,0,8.36L191.07,461A16,16,0,0,1,176.6,461Z" style="fill:#e0e0e0"></path></g><g id="freepik--Arrow--inject-678"><g id="freepik--arrow--inject-678"><polygon points="28.48 414.86 36.55 419.52 49.84 411.84 49.84 168.23 58.7 163.11 43.5 151.43 35.43 146.76 19.62 176.35 27.69 181.01 28.48 180.56 28.48 414.86" style="fill:#ebebeb"></polygon><polygon id="freepik--down-arrow--inject-678" points="36.55 419.52 49.84 411.84 49.84 168.23 58.7 163.11 43.5 151.43 27.69 181.01 36.55 175.9 36.55 419.52" style="fill:#e0e0e0"></polygon><polygon points="28.48 414.86 36.55 419.52 36.55 175.9 28.48 180.56 28.48 414.86" style="fill:#e0e0e0"></polygon><polygon points="28.48 414.86 36.55 419.52 36.55 175.9 28.48 180.56 28.48 414.86" style="opacity:0.1"></polygon></g></g><g id="freepik--Gears--inject-678"><g id="freepik--gears--inject-678"><g id="freepik--Gear--inject-678"><path d="M163.13,66.62h0l-8.2-4.7h0a.94.94,0,0,0-.85,0l-5.59,2.52a2.45,2.45,0,0,1,.17-1.36l6.46-13a1.47,1.47,0,0,0-.57-1.9l-7-4.05h0l-8.15-4.69a1.47,1.47,0,0,0-1.93.46l-8,12.1a2.42,2.42,0,0,1-1.07.82l-.61-6.14a.93.93,0,0,0-.41-.74h0l-8.21-4.71h0a.89.89,0,0,0-.88.08L107.3,47.57a3,3,0,0,0-1.3,2l-1.09,12.11A4.09,4.09,0,0,1,103.78,64a64.66,64.66,0,0,0-6,6.4,2.07,2.07,0,0,1-2.14.6l-7-2.44a1.71,1.71,0,0,0-2,.73l-8,13.87A1.69,1.69,0,0,0,79,85.21L84.59,90a2.09,2.09,0,0,1,.54,2.16,65.42,65.42,0,0,0-2.52,8.44,4,4,0,0,1-1.39,2.11l-10,7a2.94,2.94,0,0,0-1.11,2.14v12.57a.88.88,0,0,0,.39.81h0l8.2,4.7h0a.91.91,0,0,0,.85,0l5.59-2.52A2.43,2.43,0,0,1,85,128.8l-6.46,13a1.48,1.48,0,0,0,.58,1.9L89,149.38h0l5.35,3.08a1.45,1.45,0,0,0,1.92-.45l8.06-12.11a2.31,2.31,0,0,1,1.06-.81l.62,6.14a.9.9,0,0,0,.41.74h0l8.19,4.7h0a.92.92,0,0,0,.9-.07l10.89-6.29a2.91,2.91,0,0,0,1.29-2l1.09-12.12a4,4,0,0,1,1.14-2.26,64.57,64.57,0,0,0,6-6.4,2.08,2.08,0,0,1,2.14-.61l7,2.44a1.71,1.71,0,0,0,2-.73l8-13.86a1.71,1.71,0,0,0-.35-2.07l-5.61-4.83a2.11,2.11,0,0,1-.54-2.16,65.42,65.42,0,0,0,2.52-8.44,4,4,0,0,1,1.39-2.11l10-7A2.94,2.94,0,0,0,163.51,80V67.42A.89.89,0,0,0,163.13,66.62Zm-60.6,42.3c0-11.73,8.24-26,18.4-31.87,4-2.29,7.65-3,10.66-2.22C133.14,77,134,80.28,134,84.59c0,11.73-8.23,26-18.4,31.86-4,2.3-7.34,3-10,2.41C103.65,116.61,102.53,113.24,102.53,108.92Z" style="fill:#D1FF0A"></path><path d="M163.13,66.62h0l-8.2-4.7h0a.94.94,0,0,0-.85,0l-5.59,2.52a2.45,2.45,0,0,1,.17-1.36l6.46-13a1.47,1.47,0,0,0-.57-1.9l-7-4.05h0l-8.15-4.69a1.47,1.47,0,0,0-1.93.46l-8,12.1a2.42,2.42,0,0,1-1.07.82l-.61-6.14a.93.93,0,0,0-.41-.74h0l-8.21-4.71h0a.89.89,0,0,0-.88.08L107.3,47.57a3,3,0,0,0-1.3,2l-1.09,12.11A4.09,4.09,0,0,1,103.78,64a64.66,64.66,0,0,0-6,6.4,2.07,2.07,0,0,1-2.14.6l-7-2.44a1.71,1.71,0,0,0-2,.73l-8,13.87A1.69,1.69,0,0,0,79,85.21L84.59,90a2.09,2.09,0,0,1,.54,2.16,65.42,65.42,0,0,0-2.52,8.44,4,4,0,0,1-1.39,2.11l-10,7a2.94,2.94,0,0,0-1.11,2.14v12.57a.88.88,0,0,0,.39.81h0l8.2,4.7h0a.91.91,0,0,0,.85,0l5.59-2.52A2.43,2.43,0,0,1,85,128.8l-6.46,13a1.48,1.48,0,0,0,.58,1.9L89,149.38h0l5.35,3.08a1.45,1.45,0,0,0,1.92-.45l8.06-12.11a2.31,2.31,0,0,1,1.06-.81l.62,6.14a.9.9,0,0,0,.41.74h0l8.19,4.7h0a.92.92,0,0,0,.9-.07l10.89-6.29a2.91,2.91,0,0,0,1.29-2l1.09-12.12a4,4,0,0,1,1.14-2.26,64.57,64.57,0,0,0,6-6.4,2.08,2.08,0,0,1,2.14-.61l7,2.44a1.71,1.71,0,0,0,2-.73l8-13.86a1.71,1.71,0,0,0-.35-2.07l-5.61-4.83a2.11,2.11,0,0,1-.54-2.16,65.42,65.42,0,0,0,2.52-8.44,4,4,0,0,1,1.39-2.11l10-7A2.94,2.94,0,0,0,163.51,80V67.42A.89.89,0,0,0,163.13,66.62Zm-60.6,42.3c0-11.73,8.24-26,18.4-31.87,4-2.29,7.65-3,10.66-2.22C133.14,77,134,80.28,134,84.59c0,11.73-8.23,26-18.4,31.86-4,2.3-7.34,3-10,2.41C103.65,116.61,102.53,113.24,102.53,108.92Z" style="fill:#fff;opacity:0.2"></path><path d="M90.89,126.35a1.14,1.14,0,0,0-1.61-.75l-4.08,1.84A2.45,2.45,0,0,1,85,128.8l-6.47,13a1.48,1.48,0,0,0,.58,1.9L89,149.38l-1.65-1a1.45,1.45,0,0,1-.58-1.89l6.46-13a2.69,2.69,0,0,0-.15-2.36A22.46,22.46,0,0,1,90.89,126.35Zm23.61,24.28a1.07,1.07,0,0,1-.33-.69l-1.06-10.58a1.14,1.14,0,0,0-1.45-1,22.6,22.6,0,0,1-5.25.53,2.51,2.51,0,0,0-1,.22l.62,6.15a1,1,0,0,0,.42.74h0Z" style="opacity:0.1"></path><path d="M139.32,87.68c0,11.73-8.23,26-18.39,31.86-6.42,3.71-12.07,3.17-15.36-.68,2.64.64,6-.11,10-2.41C125.74,110.58,134,96.32,134,84.59c0-4.3-.82-7.59-2.37-9.76C136.28,76,139.32,80.54,139.32,87.68Z" style="opacity:0.1"></path><path d="M139.34,39.42a1.46,1.46,0,0,0-1.92.46L129.36,52a2.15,2.15,0,0,1-.53.51L137,57.21a2,2,0,0,0,.54-.53l8-12.11a1.5,1.5,0,0,1,1.77-.53ZM154.92,61.9h0a.92.92,0,0,0-.84,0l-5.6,2.54a2.77,2.77,0,0,0,.33,1A21.5,21.5,0,0,1,150.88,70a1,1,0,0,1,.09.24,1.32,1.32,0,0,0,.29.5l.14.13a1.09,1.09,0,0,0,.32.17,1.2,1.2,0,0,0,.6,0,.87.87,0,0,0,.26-.08l9.69-4.38a1.21,1.21,0,0,1,.25-.08.92.92,0,0,1,.61.08h0ZM119.06,41.2a.9.9,0,0,0-.87.09L107.3,47.57a2.82,2.82,0,0,0-1.09,1.32l8.17,4.7a2.9,2.9,0,0,1,1.1-1.32L126.37,46a1,1,0,0,1,.83-.11ZM82,101.94a3.3,3.3,0,0,1-.76.81l-9.94,7a2.77,2.77,0,0,0-.67.76l8.18,4.69a2.23,2.23,0,0,1,.67-.75l10-7a3.53,3.53,0,0,0,.77-.81Zm6-33.47a1.71,1.71,0,0,0-1.4.82l-8,13.85a1.64,1.64,0,0,0-.18,1l8.18,4.71a1.64,1.64,0,0,1,.18-1l8-13.87a1.69,1.69,0,0,1,1.29-.81Z" style="fill:#D1FF0A"></path><path d="M139.34,39.42a1.46,1.46,0,0,0-1.92.46L129.36,52a2.15,2.15,0,0,1-.53.51L137,57.21a2,2,0,0,0,.54-.53l8-12.11a1.5,1.5,0,0,1,1.77-.53ZM154.92,61.9h0a.92.92,0,0,0-.84,0l-5.6,2.54a2.77,2.77,0,0,0,.33,1A21.5,21.5,0,0,1,150.88,70a1,1,0,0,1,.09.24,1.32,1.32,0,0,0,.29.5l.14.13a1.09,1.09,0,0,0,.32.17,1.2,1.2,0,0,0,.6,0,.87.87,0,0,0,.26-.08l9.69-4.38a1.21,1.21,0,0,1,.25-.08.92.92,0,0,1,.61.08h0ZM119.06,41.2a.9.9,0,0,0-.87.09L107.3,47.57a2.82,2.82,0,0,0-1.09,1.32l8.17,4.7a2.9,2.9,0,0,1,1.1-1.32L126.37,46a1,1,0,0,1,.83-.11ZM82,101.94a3.3,3.3,0,0,1-.76.81l-9.94,7a2.77,2.77,0,0,0-.67.76l8.18,4.69a2.23,2.23,0,0,1,.67-.75l10-7a3.53,3.53,0,0,0,.77-.81Zm6-33.47a1.71,1.71,0,0,0-1.4.82l-8,13.85a1.64,1.64,0,0,0-.18,1l8.18,4.71a1.64,1.64,0,0,1,.18-1l8-13.87a1.69,1.69,0,0,1,1.29-.81Z" style="fill:#fff;opacity:0.7000000000000001"></path><path d="M163.51,80V67.42a.81.81,0,0,0-1.24-.8L152.58,71a1.15,1.15,0,0,1-1.61-.74,21.85,21.85,0,0,0-2.16-4.81,2.64,2.64,0,0,1-.15-2.35l6.46-13a1.47,1.47,0,0,0-.57-1.9l-7-4.05a1.46,1.46,0,0,0-1.92.45l-8.06,12.11a2.64,2.64,0,0,1-2.1,1,21.56,21.56,0,0,0-5.25.53,1.15,1.15,0,0,1-1.45-1l-1.06-10.57a.81.81,0,0,0-1.31-.68l-10.89,6.29a2.93,2.93,0,0,0-1.3,2L113.1,66.42A4,4,0,0,1,112,68.68a64.84,64.84,0,0,0-6,6.41,2.08,2.08,0,0,1-2.13.6l-7-2.44a1.71,1.71,0,0,0-2,.73l-8,13.87a1.69,1.69,0,0,0,.35,2.06l5.61,4.83a2.11,2.11,0,0,1,.54,2.16,65.42,65.42,0,0,0-2.52,8.44,4,4,0,0,1-1.39,2.11l-10,7a2.94,2.94,0,0,0-1.11,2.14v12.58a.81.81,0,0,0,1.24.8l9.69-4.37a1.14,1.14,0,0,1,1.61.75,22,22,0,0,0,2.16,4.8,2.64,2.64,0,0,1,.15,2.35l-6.46,13a1.46,1.46,0,0,0,.57,1.89l7,4.05a1.45,1.45,0,0,0,1.92-.45l8.06-12.11a2.7,2.7,0,0,1,2.1-1,21.08,21.08,0,0,0,5.25-.53,1.15,1.15,0,0,1,1.45,1l1.06,10.58a.82.82,0,0,0,1.32.67l10.89-6.29a2.91,2.91,0,0,0,1.29-2l1.09-12.12a4,4,0,0,1,1.14-2.26,64.57,64.57,0,0,0,6-6.4,2.08,2.08,0,0,1,2.14-.61l7,2.44a1.71,1.71,0,0,0,2-.73l8-13.86a1.71,1.71,0,0,0-.35-2.07l-5.61-4.83a2.11,2.11,0,0,1-.54-2.16,65.42,65.42,0,0,0,2.52-8.44,4,4,0,0,1,1.39-2.11l10-7A2.94,2.94,0,0,0,163.51,80Zm-42.58,39.54c-10.16,5.86-18.4,1.11-18.4-10.62s8.24-26,18.4-31.87,18.4-1.11,18.4,10.62S131.09,113.67,120.93,119.54Z" style="fill:#D1FF0A"></path><path d="M163.51,80V67.42a.81.81,0,0,0-1.24-.8L152.58,71a1.15,1.15,0,0,1-1.61-.74,21.85,21.85,0,0,0-2.16-4.81,2.64,2.64,0,0,1-.15-2.35l6.46-13a1.47,1.47,0,0,0-.57-1.9l-7-4.05a1.46,1.46,0,0,0-1.92.45l-8.06,12.11a2.64,2.64,0,0,1-2.1,1,21.56,21.56,0,0,0-5.25.53,1.15,1.15,0,0,1-1.45-1l-1.06-10.57a.81.81,0,0,0-1.31-.68l-10.89,6.29a2.93,2.93,0,0,0-1.3,2L113.1,66.42A4,4,0,0,1,112,68.68a64.84,64.84,0,0,0-6,6.41,2.08,2.08,0,0,1-2.13.6l-7-2.44a1.71,1.71,0,0,0-2,.73l-8,13.87a1.69,1.69,0,0,0,.35,2.06l5.61,4.83a2.11,2.11,0,0,1,.54,2.16,65.42,65.42,0,0,0-2.52,8.44,4,4,0,0,1-1.39,2.11l-10,7a2.94,2.94,0,0,0-1.11,2.14v12.58a.81.81,0,0,0,1.24.8l9.69-4.37a1.14,1.14,0,0,1,1.61.75,22,22,0,0,0,2.16,4.8,2.64,2.64,0,0,1,.15,2.35l-6.46,13a1.46,1.46,0,0,0,.57,1.89l7,4.05a1.45,1.45,0,0,0,1.92-.45l8.06-12.11a2.7,2.7,0,0,1,2.1-1,21.08,21.08,0,0,0,5.25-.53,1.15,1.15,0,0,1,1.45,1l1.06,10.58a.82.82,0,0,0,1.32.67l10.89-6.29a2.91,2.91,0,0,0,1.29-2l1.09-12.12a4,4,0,0,1,1.14-2.26,64.57,64.57,0,0,0,6-6.4,2.08,2.08,0,0,1,2.14-.61l7,2.44a1.71,1.71,0,0,0,2-.73l8-13.86a1.71,1.71,0,0,0-.35-2.07l-5.61-4.83a2.11,2.11,0,0,1-.54-2.16,65.42,65.42,0,0,0,2.52-8.44,4,4,0,0,1,1.39-2.11l10-7A2.94,2.94,0,0,0,163.51,80Zm-42.58,39.54c-10.16,5.86-18.4,1.11-18.4-10.62s8.24-26,18.4-31.87,18.4-1.11,18.4,10.62S131.09,113.67,120.93,119.54Z" style="fill:#fff;opacity:0.55"></path><g style="opacity:0.55"><path d="M146.82,44.86a.51.51,0,0,1,.25.06l7,4a.53.53,0,0,1,.21.68l-6.46,13a3.55,3.55,0,0,0,.19,3.24,21.23,21.23,0,0,1,2.07,4.6,2.06,2.06,0,0,0,2,1.51,2.17,2.17,0,0,0,.89-.2l9.63-4.34V80a2.06,2.06,0,0,1-.72,1.39l-10,7a5,5,0,0,0-1.76,2.66,64.68,64.68,0,0,1-2.49,8.32,3,3,0,0,0,.81,3.18l5.61,4.83a.79.79,0,0,1,.15.91l-8,13.86a.81.81,0,0,1-.66.35.6.6,0,0,1-.2,0l-7-2.44a2.48,2.48,0,0,0-.87-.14,3,3,0,0,0-2.29,1,63.18,63.18,0,0,1-6,6.31,5,5,0,0,0-1.43,2.86l-1.09,12.12a2,2,0,0,1-.84,1.31l-10.83,6.25-1-10.5a2.12,2.12,0,0,0-2.57-1.84,21.47,21.47,0,0,1-4.55.52h-.54a3.62,3.62,0,0,0-2.83,1.46l-8.05,12.11a.56.56,0,0,1-.45.23.52.52,0,0,1-.25-.07l-7-4a.53.53,0,0,1-.21-.68l6.46-13a3.58,3.58,0,0,0-.19-3.24,21.23,21.23,0,0,1-2.07-4.6,2.06,2.06,0,0,0-2-1.51,2.17,2.17,0,0,0-.89.2l-9.63,4.34V116.59a2,2,0,0,1,.72-1.38l10-7a4.91,4.91,0,0,0,1.76-2.66,63.75,63.75,0,0,1,2.49-8.32A3,3,0,0,0,93.38,94l-5.61-4.83a.78.78,0,0,1-.15-.9l8-13.87a.81.81,0,0,1,.66-.35.6.6,0,0,1,.2,0l7,2.44a2.49,2.49,0,0,0,.87.15,3,3,0,0,0,2.29-1,64.29,64.29,0,0,1,6-6.31A5,5,0,0,0,114,66.5l1.09-12.11a2.05,2.05,0,0,1,.84-1.32l10.83-6.25,1,10.51a2.08,2.08,0,0,0,2.57,1.83,21.38,21.38,0,0,1,4.54-.52h.55a3.59,3.59,0,0,0,2.83-1.46l8.05-12.11a.55.55,0,0,1,.45-.22h0M112.71,123a17.49,17.49,0,0,0,8.68-2.63c10.4-6,18.86-20.66,18.86-32.67,0-4.23-1.05-7.78-3-10.26a10,10,0,0,0-8.07-3.79,17.6,17.6,0,0,0-8.68,2.63c-10.4,6-18.86,20.66-18.86,32.67,0,8.54,4.36,14,11.1,14m34.11-79a1.46,1.46,0,0,0-1.21.64l-8.06,12.11a2.67,2.67,0,0,1-2.06,1h-.55a22.24,22.24,0,0,0-4.74.54,1.53,1.53,0,0,1-.3,0,1.12,1.12,0,0,1-1.15-1.06l-1.06-10.57c-.06-.53-.37-.84-.77-.84a1.11,1.11,0,0,0-.55.16l-10.88,6.29a2.93,2.93,0,0,0-1.3,2L113.1,66.42A4,4,0,0,1,112,68.68a64.84,64.84,0,0,0-6,6.41,2.09,2.09,0,0,1-1.57.69,1.69,1.69,0,0,1-.56-.09l-7-2.44a1.42,1.42,0,0,0-.5-.08,1.72,1.72,0,0,0-1.46.81l-8,13.87a1.69,1.69,0,0,0,.35,2.06l5.61,4.83a2.11,2.11,0,0,1,.54,2.16,65.42,65.42,0,0,0-2.52,8.44,4,4,0,0,1-1.39,2.11l-10,7a2.94,2.94,0,0,0-1.11,2.14v12.58c0,.57.32.91.77.91a1.27,1.27,0,0,0,.47-.11l9.69-4.37a1.19,1.19,0,0,1,.51-.12,1.16,1.16,0,0,1,1.1.87,22,22,0,0,0,2.16,4.8,2.64,2.64,0,0,1,.15,2.35l-6.46,13a1.46,1.46,0,0,0,.57,1.89l7,4.05a1.38,1.38,0,0,0,.71.19,1.46,1.46,0,0,0,1.21-.64l8.06-12.11a2.67,2.67,0,0,1,2.06-1h.54a21.63,21.63,0,0,0,4.75-.54,1.53,1.53,0,0,1,.3,0,1.12,1.12,0,0,1,1.15,1.06l1.06,10.58c.06.52.37.83.77.83a1.11,1.11,0,0,0,.55-.16l10.89-6.29a2.91,2.91,0,0,0,1.29-2l1.09-12.12a4,4,0,0,1,1.14-2.26,64.57,64.57,0,0,0,6-6.4,2.1,2.1,0,0,1,1.58-.7,1.69,1.69,0,0,1,.56.09l7,2.44a1.47,1.47,0,0,0,.51.08,1.69,1.69,0,0,0,1.46-.81l8-13.86a1.71,1.71,0,0,0-.35-2.07l-5.61-4.83a2.11,2.11,0,0,1-.54-2.16,65.42,65.42,0,0,0,2.52-8.44,4,4,0,0,1,1.39-2.11l10-7A2.94,2.94,0,0,0,163.51,80V67.42c0-.56-.32-.91-.77-.91a1.27,1.27,0,0,0-.47.11L152.58,71a1.19,1.19,0,0,1-.51.12,1.16,1.16,0,0,1-1.1-.86,21.85,21.85,0,0,0-2.16-4.81,2.64,2.64,0,0,1-.15-2.35l6.46-13a1.47,1.47,0,0,0-.57-1.9l-7-4.05a1.38,1.38,0,0,0-.71-.19Zm-34.11,78.12c-6,0-10.18-4.81-10.18-13.13,0-11.73,8.24-26,18.4-31.87a16.71,16.71,0,0,1,8.22-2.51c6,0,10.18,4.81,10.18,13.13,0,11.74-8.24,26-18.4,31.87a16.71,16.71,0,0,1-8.22,2.51Z" style="fill:#fff"></path></g></g><g id="freepik--gear--inject-678"><path d="M223.7,66.61A4.75,4.75,0,0,1,225,64.06l5.15-4.73a3.1,3.1,0,0,0,.86-2.54l-1-5.61a1.06,1.06,0,0,0-.5-.78h0l-6.1-3.52h0a1,1,0,0,0-1.06.09l-2.21,1.46,2.13-5.78a1.27,1.27,0,0,0-.59-1.6h0l-6.11-3.53h0a1.29,1.29,0,0,0-.4-.16l-3.88-.87a2.11,2.11,0,0,0-2.2,1l-3.64,6.94A3.65,3.65,0,0,1,204,45.81l-.17-.56a1.1,1.1,0,0,0-.49-.67h0L197.26,41h0a1,1,0,0,0-1.15.15l-5.81,4.57a3.28,3.28,0,0,0-1.1,2.47l.35,5.52a4.4,4.4,0,0,1-.91,2.68q-1.42,1.71-2.7,3.57a3,3,0,0,1-2.36,1.2L179.84,61a2.39,2.39,0,0,0-2.14,1.32l-3.51,7.88a1.48,1.48,0,0,0,.6,1.89h0l4.14,2.39a1.87,1.87,0,0,1,.09,1.07,34.37,34.37,0,0,0-.64,3.76,4.71,4.71,0,0,1-1.26,2.55L172,86.61a3.14,3.14,0,0,0-.87,2.54l1,5.61a1,1,0,0,0,.47.76h0l6.14,3.54h0a1,1,0,0,0,1.05-.1l2.21-1.46-2.13,5.78a1.28,1.28,0,0,0,.51,1.58h0l6.13,3.53v0a1.54,1.54,0,0,0,.43.2l3.88.86a2.11,2.11,0,0,0,2.2-1l3.64-7a3.56,3.56,0,0,1,1.45-1.34l.17.55a1.14,1.14,0,0,0,.5.68h0l6.07,3.5h0l.07,0h0a1,1,0,0,0,1.12-.17l5.81-4.57a3.25,3.25,0,0,0,1.1-2.46l-.35-5.53a4.42,4.42,0,0,1,.91-2.68c.95-1.13,1.85-2.33,2.7-3.57a3,3,0,0,1,2.36-1.2l3.74.19a2.39,2.39,0,0,0,2.14-1.32l3.51-7.87a1.5,1.5,0,0,0-.78-2l-3-1.29a1.87,1.87,0,0,1-1-2.08A36.49,36.49,0,0,0,223.7,66.61Zm-31,17.09c-1.14-6.61,3-16,9.34-20.94a12.7,12.7,0,0,1,6.62-2.95,10,10,0,0,1,.72,2.43c1.14,6.62-3,16-9.34,20.94a12.7,12.7,0,0,1-6.59,2.95A8.88,8.88,0,0,1,192.7,83.7Z" style="fill:#D1FF0A"></path><path d="M223.7,66.61A4.75,4.75,0,0,1,225,64.06l5.15-4.73a3.1,3.1,0,0,0,.86-2.54l-1-5.61a1.06,1.06,0,0,0-.5-.78h0l-6.1-3.52h0a1,1,0,0,0-1.06.09l-2.21,1.46,2.13-5.78a1.27,1.27,0,0,0-.59-1.6h0l-6.11-3.53h0a1.29,1.29,0,0,0-.4-.16l-3.88-.87a2.11,2.11,0,0,0-2.2,1l-3.64,6.94A3.65,3.65,0,0,1,204,45.81l-.17-.56a1.1,1.1,0,0,0-.49-.67h0L197.26,41h0a1,1,0,0,0-1.15.15l-5.81,4.57a3.28,3.28,0,0,0-1.1,2.47l.35,5.52a4.4,4.4,0,0,1-.91,2.68q-1.42,1.71-2.7,3.57a3,3,0,0,1-2.36,1.2L179.84,61a2.39,2.39,0,0,0-2.14,1.32l-3.51,7.88a1.48,1.48,0,0,0,.6,1.89h0l4.14,2.39a1.87,1.87,0,0,1,.09,1.07,34.37,34.37,0,0,0-.64,3.76,4.71,4.71,0,0,1-1.26,2.55L172,86.61a3.14,3.14,0,0,0-.87,2.54l1,5.61a1,1,0,0,0,.47.76h0l6.14,3.54h0a1,1,0,0,0,1.05-.1l2.21-1.46-2.13,5.78a1.28,1.28,0,0,0,.51,1.58h0l6.13,3.53v0a1.54,1.54,0,0,0,.43.2l3.88.86a2.11,2.11,0,0,0,2.2-1l3.64-7a3.56,3.56,0,0,1,1.45-1.34l.17.55a1.14,1.14,0,0,0,.5.68h0l6.07,3.5h0l.07,0h0a1,1,0,0,0,1.12-.17l5.81-4.57a3.25,3.25,0,0,0,1.1-2.46l-.35-5.53a4.42,4.42,0,0,1,.91-2.68c.95-1.13,1.85-2.33,2.7-3.57a3,3,0,0,1,2.36-1.2l3.74.19a2.39,2.39,0,0,0,2.14-1.32l3.51-7.87a1.5,1.5,0,0,0-.78-2l-3-1.29a1.87,1.87,0,0,1-1-2.08A36.49,36.49,0,0,0,223.7,66.61Zm-31,17.09c-1.14-6.61,3-16,9.34-20.94a12.7,12.7,0,0,1,6.62-2.95,10,10,0,0,1,.72,2.43c1.14,6.62-3,16-9.34,20.94a12.7,12.7,0,0,1-6.59,2.95A8.88,8.88,0,0,1,192.7,83.7Z" style="fill:#fff;opacity:0.2"></path><path d="M186.93,96a1.49,1.49,0,0,0-2.06-.47l-2.94,1.94-2.14,5.78a1.28,1.28,0,0,0,.52,1.57l6.06,3.49a1.28,1.28,0,0,1-.46-1.54l2.63-7.1a2.59,2.59,0,0,0-.6-2.44A10.18,10.18,0,0,1,186.93,96Zm17.89,8.86a1.14,1.14,0,0,1-.5-.68L203,99.87a1.34,1.34,0,0,0-1.84-.84,15.53,15.53,0,0,1-2.39.79,3.14,3.14,0,0,0-.75.31l.17.57a1.11,1.11,0,0,0,.5.67h0Z" style="opacity:0.1"></path><path d="M206.16,86.71c-5.44,4.27-10.67,3.86-12.72-.59a12.59,12.59,0,0,0,6.6-2.94c6.3-5,10.48-14.32,9.35-20.94a9.33,9.33,0,0,0-.74-2.42c3.46-.3,6.13,1.77,6.85,5.95C216.64,72.39,212.46,81.76,206.16,86.71Z" style="opacity:0.1"></path><path d="M184.65,61a2.65,2.65,0,0,1-1.07.23L179.84,61a2.32,2.32,0,0,0-1.55.56l6.12,3.53a2.42,2.42,0,0,1,1.55-.57l3.74.18a2.44,2.44,0,0,0,1.07-.2ZM197.26,41a1,1,0,0,0-1.14.16l-5.82,4.57a3.21,3.21,0,0,0-1,1.52l6.12,3.53a3.09,3.09,0,0,1,1-1.52l5.8-4.56a1,1,0,0,1,1.16-.16h0Zm-20.2,40.9L172,86.61a3,3,0,0,0-.79,1.47l6.11,3.51a3,3,0,0,1,.8-1.45l5.09-4.67Zm38.55-44.41a1.25,1.25,0,0,0-.41-.16l-3.87-.87a2.11,2.11,0,0,0-2.2,1l-3.64,6.94a3.16,3.16,0,0,1-.83.94l6.12,3.52a3.23,3.23,0,0,0,.82-.93l3.65-7a2.11,2.11,0,0,1,2.2-1l3.87.88a2.35,2.35,0,0,1,.4.14Zm7.81,9.34h0a1,1,0,0,0-1.07.1l-2.2,1.46-.5,1.31a2.58,2.58,0,0,0,.62,2.46,11,11,0,0,1,1,1.22,2.55,2.55,0,0,0,.26.3l.23.17a1.54,1.54,0,0,0,.52.21,1.43,1.43,0,0,0,.68,0,.88.88,0,0,0,.37-.17l5.15-3.38a1.85,1.85,0,0,1,.38-.18.74.74,0,0,1,.44,0,.73.73,0,0,1,.24.07Z" style="fill:#D1FF0A"></path><path d="M184.65,61a2.65,2.65,0,0,1-1.07.23L179.84,61a2.32,2.32,0,0,0-1.55.56l6.12,3.53a2.42,2.42,0,0,1,1.55-.57l3.74.18a2.44,2.44,0,0,0,1.07-.2ZM197.26,41a1,1,0,0,0-1.14.16l-5.82,4.57a3.21,3.21,0,0,0-1,1.52l6.12,3.53a3.09,3.09,0,0,1,1-1.52l5.8-4.56a1,1,0,0,1,1.16-.16h0Zm-20.2,40.9L172,86.61a3,3,0,0,0-.79,1.47l6.11,3.51a3,3,0,0,1,.8-1.45l5.09-4.67Zm38.55-44.41a1.25,1.25,0,0,0-.41-.16l-3.87-.87a2.11,2.11,0,0,0-2.2,1l-3.64,6.94a3.16,3.16,0,0,1-.83.94l6.12,3.52a3.23,3.23,0,0,0,.82-.93l3.65-7a2.11,2.11,0,0,1,2.2-1l3.87.88a2.35,2.35,0,0,1,.4.14Zm7.81,9.34h0a1,1,0,0,0-1.07.1l-2.2,1.46-.5,1.31a2.58,2.58,0,0,0,.62,2.46,11,11,0,0,1,1,1.22,2.55,2.55,0,0,0,.26.3l.23.17a1.54,1.54,0,0,0,.52.21,1.43,1.43,0,0,0,.68,0,.88.88,0,0,0,.37-.17l5.15-3.38a1.85,1.85,0,0,1,.38-.18.74.74,0,0,1,.44,0,.73.73,0,0,1,.24.07Z" style="fill:#fff;opacity:0.7000000000000001"></path><path d="M231,56.79l-1-5.61a.93.93,0,0,0-1.54-.67l-5.14,3.39a1.49,1.49,0,0,1-2.06-.47,11.09,11.09,0,0,0-1-1.22,2.56,2.56,0,0,1-.6-2.45l2.62-7.1a1.29,1.29,0,0,0-1-1.76L217.45,40a2.1,2.1,0,0,0-2.2,1L211.6,48a3.8,3.8,0,0,1-2.2,1.66,18.54,18.54,0,0,0-2.39.79,1.31,1.31,0,0,1-1.83-.84l-1.31-4.35a1,1,0,0,0-1.64-.52l-5.81,4.57a3.24,3.24,0,0,0-1.1,2.47l.34,5.52a4.41,4.41,0,0,1-.9,2.68c-.95,1.14-1.86,2.33-2.7,3.57a3,3,0,0,1-2.36,1.2L186,64.55a2.39,2.39,0,0,0-2.14,1.32l-3.52,7.87a1.51,1.51,0,0,0,.79,2l3,1.28a1.86,1.86,0,0,1,1,2.08,34,34,0,0,0-.65,3.76,4.65,4.65,0,0,1-1.26,2.55l-5.14,4.73a3.11,3.11,0,0,0-.87,2.54l1,5.61a.92.92,0,0,0,1.53.67l5.15-3.39a1.49,1.49,0,0,1,2.06.47,12.17,12.17,0,0,0,1,1.23,2.56,2.56,0,0,1,.61,2.45l-2.63,7.09a1.31,1.31,0,0,0,1,1.77l3.88.86a2.11,2.11,0,0,0,2.2-1l3.64-7a3.82,3.82,0,0,1,2.21-1.66,18.41,18.41,0,0,0,2.38-.79,1.33,1.33,0,0,1,1.84.84l1.31,4.35a1,1,0,0,0,1.64.52l5.81-4.57a3.25,3.25,0,0,0,1.1-2.46l-.35-5.53a4.42,4.42,0,0,1,.91-2.68c.95-1.13,1.85-2.33,2.7-3.57a3,3,0,0,1,2.36-1.2l3.73.19a2.4,2.4,0,0,0,2.15-1.32l3.51-7.87a1.5,1.5,0,0,0-.78-2l-3-1.29a1.87,1.87,0,0,1-1-2.08,36.49,36.49,0,0,0,.64-3.76A4.75,4.75,0,0,1,225,64.06l5.15-4.73A3.1,3.1,0,0,0,231,56.79ZM206.16,86.71c-6.3,5-12.33,3.6-13.46-3s3-16,9.34-20.94,12.32-3.6,13.46,3S212.46,81.76,206.16,86.71Z" style="fill:#D1FF0A"></path><path d="M231,56.79l-1-5.61a.93.93,0,0,0-1.54-.67l-5.14,3.39a1.49,1.49,0,0,1-2.06-.47,11.09,11.09,0,0,0-1-1.22,2.56,2.56,0,0,1-.6-2.45l2.62-7.1a1.29,1.29,0,0,0-1-1.76L217.45,40a2.1,2.1,0,0,0-2.2,1L211.6,48a3.8,3.8,0,0,1-2.2,1.66,18.54,18.54,0,0,0-2.39.79,1.31,1.31,0,0,1-1.83-.84l-1.31-4.35a1,1,0,0,0-1.64-.52l-5.81,4.57a3.24,3.24,0,0,0-1.1,2.47l.34,5.52a4.41,4.41,0,0,1-.9,2.68c-.95,1.14-1.86,2.33-2.7,3.57a3,3,0,0,1-2.36,1.2L186,64.55a2.39,2.39,0,0,0-2.14,1.32l-3.52,7.87a1.51,1.51,0,0,0,.79,2l3,1.28a1.86,1.86,0,0,1,1,2.08,34,34,0,0,0-.65,3.76,4.65,4.65,0,0,1-1.26,2.55l-5.14,4.73a3.11,3.11,0,0,0-.87,2.54l1,5.61a.92.92,0,0,0,1.53.67l5.15-3.39a1.49,1.49,0,0,1,2.06.47,12.17,12.17,0,0,0,1,1.23,2.56,2.56,0,0,1,.61,2.45l-2.63,7.09a1.31,1.31,0,0,0,1,1.77l3.88.86a2.11,2.11,0,0,0,2.2-1l3.64-7a3.82,3.82,0,0,1,2.21-1.66,18.41,18.41,0,0,0,2.38-.79,1.33,1.33,0,0,1,1.84.84l1.31,4.35a1,1,0,0,0,1.64.52l5.81-4.57a3.25,3.25,0,0,0,1.1-2.46l-.35-5.53a4.42,4.42,0,0,1,.91-2.68c.95-1.13,1.85-2.33,2.7-3.57a3,3,0,0,1,2.36-1.2l3.73.19a2.4,2.4,0,0,0,2.15-1.32l3.51-7.87a1.5,1.5,0,0,0-.78-2l-3-1.29a1.87,1.87,0,0,1-1-2.08,36.49,36.49,0,0,0,.64-3.76A4.75,4.75,0,0,1,225,64.06l5.15-4.73A3.1,3.1,0,0,0,231,56.79ZM206.16,86.71c-6.3,5-12.33,3.6-13.46-3s3-16,9.34-20.94,12.32-3.6,13.46,3S212.46,81.76,206.16,86.71Z" style="fill:#fff;opacity:0.55"></path><g style="opacity:0.55"><path d="M217.07,40.91h0l.17,0,3.88.87a.44.44,0,0,1,.29.19.43.43,0,0,1,0,.35l-2.62,7.09a3.46,3.46,0,0,0,.8,3.41,9.25,9.25,0,0,1,.92,1.13,2.53,2.53,0,0,0,2,1.1,2.33,2.33,0,0,0,1.29-.4L229,51.29l.09,0a.25.25,0,0,1,0,.1l1,5.61a2.22,2.22,0,0,1-.58,1.7l-5.15,4.73a5.68,5.68,0,0,0-1.55,3.13,31,31,0,0,1-.63,3.65,2.82,2.82,0,0,0,1.58,3.14l3,1.29a.57.57,0,0,1,.31.32.61.61,0,0,1,0,.44l-3.52,7.87a1.49,1.49,0,0,1-1.25.77h0l-3.73-.18h-.14a3.94,3.94,0,0,0-3,1.6c-.83,1.22-1.72,2.4-2.64,3.5a5.23,5.23,0,0,0-1.12,3.33l.35,5.52a2.38,2.38,0,0,1-.76,1.68L205.39,104l-.11.08a.43.43,0,0,1-.07-.14L203.9,99.6A2.19,2.19,0,0,0,201.76,98a2.47,2.47,0,0,0-.92.18,16.72,16.72,0,0,1-2.27.75,4.74,4.74,0,0,0-2.8,2.13L192.13,108a1.21,1.21,0,0,1-1,.57l-.18,0-3.88-.87a.39.39,0,0,1-.28-.19.42.42,0,0,1,0-.35L189.4,100a3.47,3.47,0,0,0-.8-3.41,10.09,10.09,0,0,1-.91-1.12,2.51,2.51,0,0,0-2-1.1,2.3,2.3,0,0,0-1.29.39l-5.15,3.38a.25.25,0,0,1-.08,0l0-.09-1-5.62a2.22,2.22,0,0,1,.58-1.69l5.15-4.74A5.59,5.59,0,0,0,185.41,83a35.81,35.81,0,0,1,.63-3.65,2.8,2.8,0,0,0-1.57-3.14l-3-1.29a.53.53,0,0,1-.31-.31.59.59,0,0,1,0-.45l3.51-7.87a1.52,1.52,0,0,1,1.25-.77h0l3.74.18h.14a3.93,3.93,0,0,0,3-1.61c.84-1.22,1.73-2.39,2.65-3.5a5.35,5.35,0,0,0,1.12-3.32l-.35-5.53A2.37,2.37,0,0,1,197,50l5.81-4.57.12-.08a.49.49,0,0,1,.06.14l1.31,4.35a2.21,2.21,0,0,0,2.15,1.61,2.47,2.47,0,0,0,.92-.18,17.71,17.71,0,0,1,2.27-.75,4.71,4.71,0,0,0,2.79-2.13l3.65-6.94a1.19,1.19,0,0,1,1-.57M198.92,90.62a13,13,0,0,0,7.81-3.18c6.53-5.13,10.87-14.92,9.68-21.83-.73-4.23-3.4-6.76-7.14-6.76A13,13,0,0,0,201.46,62c-6.52,5.13-10.87,14.92-9.68,21.83.73,4.23,3.4,6.76,7.14,6.76M217.07,40a2.1,2.1,0,0,0-1.82,1.06L211.6,48a3.8,3.8,0,0,1-2.2,1.66,18.54,18.54,0,0,0-2.39.79,1.5,1.5,0,0,1-.57.12,1.29,1.29,0,0,1-1.26-1l-1.31-4.35a1,1,0,0,0-.92-.8,1.17,1.17,0,0,0-.72.28l-5.81,4.57a3.24,3.24,0,0,0-1.1,2.47l.34,5.52a4.41,4.41,0,0,1-.9,2.68c-.95,1.14-1.86,2.33-2.7,3.57a3,3,0,0,1-2.27,1.2h-.09L186,64.55h-.08a2.41,2.41,0,0,0-2.06,1.32l-3.52,7.87a1.51,1.51,0,0,0,.79,2l3,1.28a1.86,1.86,0,0,1,1,2.08,34,34,0,0,0-.65,3.76,4.65,4.65,0,0,1-1.26,2.55l-5.14,4.73a3.11,3.11,0,0,0-.87,2.54l1,5.61c.1.57.44.89.88.89a1.18,1.18,0,0,0,.65-.22l5.15-3.39a1.4,1.4,0,0,1,.78-.24,1.57,1.57,0,0,1,1.28.71,12.17,12.17,0,0,0,1,1.23,2.56,2.56,0,0,1,.61,2.45l-2.63,7.09a1.31,1.31,0,0,0,1,1.77l3.88.86a1.58,1.58,0,0,0,.38,0,2.14,2.14,0,0,0,1.82-1l3.64-7a3.83,3.83,0,0,1,2.2-1.66,18,18,0,0,0,2.39-.79,1.53,1.53,0,0,1,.58-.11,1.29,1.29,0,0,1,1.26,1l1.31,4.35a1,1,0,0,0,.92.8,1.17,1.17,0,0,0,.72-.28l5.81-4.57a3.25,3.25,0,0,0,1.1-2.46l-.35-5.53a4.42,4.42,0,0,1,.91-2.68c.95-1.13,1.85-2.33,2.7-3.57a3,3,0,0,1,2.27-1.2h.09l3.73.19h.09a2.41,2.41,0,0,0,2.06-1.32l3.51-7.87a1.5,1.5,0,0,0-.78-2l-3-1.29a1.87,1.87,0,0,1-1-2.08,36.49,36.49,0,0,0,.64-3.76A4.75,4.75,0,0,1,225,64.06l5.15-4.73a3.1,3.1,0,0,0,.86-2.54l-1-5.61c-.1-.57-.45-.88-.88-.88a1.27,1.27,0,0,0-.66.21l-5.14,3.39a1.45,1.45,0,0,1-.78.24,1.57,1.57,0,0,1-1.28-.71,11.09,11.09,0,0,0-1-1.22,2.56,2.56,0,0,1-.6-2.45l2.62-7.1a1.29,1.29,0,0,0-1-1.76L217.45,40a1.64,1.64,0,0,0-.38,0ZM198.92,89.7c-3.15,0-5.55-2.07-6.23-6-1.13-6.61,3.05-16,9.35-20.94a12.13,12.13,0,0,1,7.23-3c3.16,0,5.55,2.07,6.23,6,1.14,6.62-3,16-9.34,20.94a12.12,12.12,0,0,1-7.24,3Z" style="fill:#fff"></path></g></g></g></g><g id="freepik--Target--inject-678"><g id="freepik--target--inject-678"><g id="freepik--target--inject-678"><path d="M421.76,43.17c-7.1-4.11-16.91-3.53-27.75,2.73-21.66,12.51-39.22,42.93-39.22,67.95,0,12.55,4.43,21.35,11.57,25.43,1.86,1.06,9.37,5.59,11.24,6.68,7.1,4.1,16.9,3.51,27.74-2.74,21.66-12.51,39.22-42.93,39.22-67.95,0-12.5-4.39-21.28-11.48-25.38" style="fill:#D1FF0A"></path><path d="M354.79,113.85h0c0,12.55,4.43,21.35,11.57,25.43,1.86,1.06,9.37,5.59,11.24,6.68,7.1,4.1,16.9,3.51,27.73-2.74Z" style="opacity:0.4"></path><path d="M360.51,87a72.85,72.85,0,0,0-5.72,26.88l50.54,29.37h0a72.94,72.94,0,0,0,20.4-18.39Z" style="opacity:0.30000000000000004"></path><path d="M425.74,124.83c11.29-14.47,18.82-33.17,18.82-49.56,0-12.5-4.39-21.28-11.48-25.38l-11.32-6.72c-7.1-4.11-16.91-3.53-27.75,2.73C379.82,54.09,367.4,70,360.51,87Z" style="opacity:0.2"></path><path d="M405.33,52.62c-21.66,12.52-39.22,42.93-39.22,67.95s17.57,35.16,39.23,22.65,39.24-42.93,39.22-67.95S427,40.12,405.33,52.62Z" style="fill:#D1FF0A"></path><path d="M405.33,52.62c-21.66,12.52-39.22,42.93-39.22,67.95s17.57,35.16,39.23,22.65,39.24-42.93,39.22-67.95S427,40.12,405.33,52.62Z" style="fill:#fff;opacity:0.30000000000000004"></path><path d="M405.33,63.94c-16.25,9.38-29.42,32.21-29.42,51s13.18,26.37,29.43,17,29.42-32.2,29.42-51S421.58,54.56,405.33,63.94Z" style="fill:#fafafa"></path><path d="M405.33,74.24c-11.32,6.54-20.5,22.44-20.5,35.52s9.18,18.38,20.51,11.84,20.5-22.44,20.5-35.52S416.66,67.7,405.33,74.24Z" style="fill:#D1FF0A"></path><path d="M405.33,74.24c-11.32,6.54-20.5,22.44-20.5,35.52s9.18,18.38,20.51,11.84,20.5-22.44,20.5-35.52S416.66,67.7,405.33,74.24Z" style="fill:#fff;opacity:0.30000000000000004"></path><path d="M405.33,84.81C399.07,88.43,394,97.24,394,104.47s5.08,10.18,11.35,6.56,11.34-12.42,11.34-19.66S411.6,81.19,405.33,84.81Z" style="fill:#fafafa"></path><path d="M405.33,92.39a10.59,10.59,0,0,0-4.78,8.3c0,3,2.14,4.29,4.78,2.76a10.57,10.57,0,0,0,4.79-8.29C410.12,92.1,408,90.86,405.33,92.39Z" style="fill:#455a64"></path></g><g id="freepik--arrow--inject-678"><path d="M457.16,128.26s.61,7.77,4.2,9.85,5.54-4.22,3.21-5.56Z" style="fill:#D1FF0A"></path><path d="M457.16,128.26s7-3.35,10.62-1.28-.88,6.91-3.21,5.57Z" style="fill:#D1FF0A"></path><path d="M457.16,128.26s7-3.35,10.62-1.28-.88,6.91-3.21,5.57Z" style="fill:#fff;opacity:0.5"></path><polygon points="414.59 104.58 469.86 136.51 470.64 135.13 414.46 102.68 414.59 104.58" style="fill:#37474f"></polygon><path d="M468.9,133.58a2.32,2.32,0,1,0,3.17.85A2.32,2.32,0,0,0,468.9,133.58Z" style="fill:#263238"></path><path d="M416,104.46c1.91,2.51-1.54,6.86-1.54,6.86l-9-12.93Z" style="fill:#D1FF0A"></path><path d="M416,104.46c1.91,2.51-1.54,6.86-1.54,6.86l-9-12.93Z" style="fill:#D1FF0A"></path><path d="M421.13,99.7s-2,5.15-5.17,4.76l-10.51-6.07Z" style="fill:#D1FF0A"></path><path d="M421.13,99.7s-2,5.15-5.17,4.76l-10.51-6.07Z" style="fill:#fff;opacity:0.5"></path></g></g></g><g id="freepik--Plants--inject-678"><g id="freepik--plants--inject-678"><path d="M84,441.59S86.72,402.91,69.59,367C60,346.86,45.43,338.55,37,338.45c-9.48-.11-18.11,9.7-8.45,22.62,9.18,12.28,25,16.08,37.24,49.26,8.08,21.87,8.61,36.79,8.61,36.79Z" style="fill:#D1FF0A"></path><path d="M84,441.59S86.72,402.91,69.59,367C60,346.86,45.43,338.55,37,338.45c-9.48-.11-18.11,9.7-8.45,22.62,9.18,12.28,25,16.08,37.24,49.26,8.08,21.87,8.61,36.79,8.61,36.79Z" style="fill:#fff;opacity:0.5"></path><path d="M77.19,432.53a.59.59,0,0,1-.59-.59c0-42-23.44-74.9-40.09-84.81a.59.59,0,0,1-.2-.81.6.6,0,0,1,.81-.21C54,356.17,77.78,389.44,77.78,431.94A.58.58,0,0,1,77.19,432.53Z" style="fill:#fff"></path><path d="M73.25,447.77c-2.17-8.82-8-17.53-19.58-26.22s-27-16.16-25.76-25,13-8.26,21.56-4.34,28.66,20.93,28.25,53Z" style="fill:#D1FF0A"></path><path d="M73.25,447.77c-2.17-8.82-8-17.53-19.58-26.22s-27-16.16-25.76-25,13-8.26,21.56-4.34,28.66,20.93,28.25,53Z" style="fill:#fff;opacity:0.65"></path><path d="M74.47,437.54a.56.56,0,0,1-.54-.45c-3.42-18.76-27.61-40.22-38-42.81a.55.55,0,1,1,.26-1.07c10.94,2.72,35.3,24.18,38.86,43.68a.56.56,0,0,1-.45.64Z" style="fill:#fff"></path></g></g><g id="freepik--Board--inject-678"><g id="freepik--board--inject-678"><g id="freepik--board--inject-678"><polygon points="90.42 434.81 359.83 279.26 359.8 50.42 90.42 205.95 90.42 434.81" style="fill:#fafafa"></polygon><polygon points="80.51 200.29 90.42 205.95 359.8 50.42 369.47 33.46 80.51 200.29" style="fill:#455a64"></polygon><polygon points="369.47 285.14 369.47 33.41 359.8 50.42 359.83 279.26 369.47 285.14" style="fill:#37474f"></polygon><polygon points="80.51 200.29 90.42 205.95 90.42 434.81 80.51 451.97 80.51 200.29" style="fill:#37474f"></polygon><polygon points="90.42 434.81 359.83 279.26 369.47 285.14 80.51 451.97 90.42 434.81" style="fill:#455a64"></polygon><polygon points="369.47 33.46 362.21 29.26 73.25 196.1 80.51 200.29 369.47 33.46" style="fill:#455a64"></polygon><polygon points="73.25 196.1 80.51 200.29 80.51 451.97 73.25 447.78 73.25 196.1" style="fill:#263238"></polygon><g style="mix-blend-mode:multiply"><polygon points="359.8 50.42 356.17 52.52 356.2 277.17 90.42 430.61 90.42 434.81 359.83 279.26 359.8 50.42" style="fill:#263238"></polygon></g></g><polygon points="80.51 200.29 369.47 33.46 362.21 29.26 366.6 33.26 80.51 200.29" style="fill:#fff;opacity:0.30000000000000004"></polygon><path d="M156.86,383a1,1,0,0,1-1-1V179.42a1,1,0,1,1,2,0V382A1,1,0,0,1,156.86,383Z" style="fill:#455a64"></path><path d="M223.3,344.78a1,1,0,0,1-1-1V141.16a1,1,0,0,1,2,0V343.78A1,1,0,0,1,223.3,344.78Z" style="fill:#455a64"></path><path d="M289.75,306.52a1,1,0,0,1-1-1V102.9a1,1,0,1,1,2,0V305.52A1,1,0,0,1,289.75,306.52Z" style="fill:#455a64"></path><path d="M96.46,263a1,1,0,0,1-.5-1.87L349.64,114.68a1,1,0,1,1,1,1.73L97,262.87A.93.93,0,0,1,96.46,263Z" style="fill:#455a64"></path></g></g><g id="freepik--Threats--inject-678"><g id="freepik--threats--inject-678"><g id="freepik--Note--inject-678"><polygon points="319.67 231.06 319.67 262.1 345.39 247.25 345.39 216.21 319.67 231.06" style="opacity:0.1"></polygon><path d="M348.88,248.63l-18.47,10.66c-2-1-6.69-3-7.93-5.39l-1.77-17.57,25.72-14.85Z" style="fill:#D1FF0A"></path><path d="M322.48,253.9c.63,1.37,5.41,1.82,7.62.83,0,0-.72,3.28.31,4.56,0,0-1.9.06-4.83-1.84S322.48,253.9,322.48,253.9Z" style="fill:#D1FF0A"></path><path d="M322.48,253.9c.63,1.37,5.41,1.82,7.62.83,0,0-.72,3.28.31,4.56,0,0-1.9.06-4.83-1.84S322.48,253.9,322.48,253.9Z" style="opacity:0.15"></path><polygon points="346.43 221.49 320.71 236.33 320.71 231.57 346.43 216.72 346.43 221.49" style="fill:#D1FF0A"></polygon><polygon points="346.43 221.49 320.71 236.33 320.71 231.57 346.43 216.72 346.43 221.49" style="opacity:0.1"></polygon></g><path d="M328,240.39l13.61-7.87c.58-.33,1-.09,1,.53a2.23,2.23,0,0,1-1,1.74L328,242.65c-.58.34-1.05.1-1.05-.53A2.23,2.23,0,0,1,328,240.39Z" style="fill:#455a64"></path><path d="M328,246l9.39-5.42c.58-.34,1-.1,1,.53a2.22,2.22,0,0,1-1,1.73L328,248.25c-.58.33-1.05.1-1.05-.53A2.23,2.23,0,0,1,328,246Z" style="fill:#455a64"></path><g id="freepik--note--inject-678"><polygon points="297.05 227.14 297.05 258.19 322.77 243.34 322.77 212.29 297.05 227.14" style="opacity:0.1"></polygon><path d="M326.26,244.72l-18.47,10.65c-2-1-6.69-3-7.93-5.38l-1.77-17.57,25.71-14.85Z" style="fill:#D1FF0A"></path><path d="M326.26,244.72l-18.47,10.65c-2-1-6.69-3-7.93-5.38l-1.77-17.57,25.71-14.85Z" style="fill:#fff;opacity:0.5"></path><path d="M299.86,250c.62,1.37,5.41,1.82,7.62.83,0,0-.73,3.28.31,4.55,0,0-1.9.07-4.83-1.84S299.86,250,299.86,250Z" style="fill:#D1FF0A"></path><path d="M299.86,250c.62,1.37,5.41,1.82,7.62.83,0,0-.73,3.28.31,4.55,0,0-1.9.07-4.83-1.84S299.86,250,299.86,250Z" style="fill:#fff;opacity:0.5"></path><path d="M299.86,250c.62,1.37,5.41,1.82,7.62.83,0,0-.73,3.28.31,4.55,0,0-1.9.07-4.83-1.84S299.86,250,299.86,250Z" style="fill:#D1FF0A;opacity:0.2"></path><polygon points="323.81 217.57 298.09 232.42 298.09 227.65 323.81 212.81 323.81 217.57" style="fill:#D1FF0A"></polygon><polygon points="323.81 217.57 298.09 232.42 298.09 227.65 323.81 212.81 323.81 217.57" style="fill:#fff;opacity:0.5"></polygon><polygon points="323.81 217.57 298.09 232.42 298.09 227.65 323.81 212.81 323.81 217.57" style="fill:#D1FF0A;opacity:0.2"></polygon></g><path d="M305.51,244.63l15.92-9.19c.57-.33,1-.09,1,.53a2.25,2.25,0,0,1-1,1.74l-15.92,9.19c-.57.33-1,.1-1-.53A2.27,2.27,0,0,1,305.51,244.63Z" style="fill:#fafafa"></path><path d="M305.51,239.4,314.9,234c.58-.33,1.05-.09,1.05.53a2.23,2.23,0,0,1-1.05,1.74l-9.39,5.43c-.57.33-1,.09-1-.53A2.25,2.25,0,0,1,305.51,239.4Z" style="fill:#fafafa"></path><path d="M305.51,234.15l9.39-5.42c.58-.34,1.05-.1,1.05.52A2.23,2.23,0,0,1,314.9,231l-9.39,5.43c-.57.33-1,.09-1-.53A2.25,2.25,0,0,1,305.51,234.15Z" style="fill:#fafafa"></path><path d="M317.48,215.49a9.81,9.81,0,0,1,4.45-7.68,3.08,3.08,0,0,1,3.23-.27h0l2,1.18-.81,1.44c0,.05,0,.1,0,.16A9.81,9.81,0,0,1,322,218h0l-.92,1.63-2.32-1.34h0A3.14,3.14,0,0,1,317.48,215.49Z" style="fill:#f28f8f"></path><path d="M328.58,211.62a9.79,9.79,0,0,1-4.45,7.67c-2.46,1.42-4.46.29-4.46-2.53a9.82,9.82,0,0,1,4.46-7.68C326.59,207.66,328.58,208.8,328.58,211.62Z" style="fill:#ffa8a7"></path><g id="freepik--alert-sign--inject-678"><path d="M307.46,206.3l15.12-49c.25-.82.75-.86,1.12-.09l14.69,30.69a1.7,1.7,0,0,1-.67,2.17l-29.37,17C307.61,207.44,307.21,207.12,307.46,206.3Z" style="fill:#D1FF0A"></path><path d="M307.46,206.3l15.12-49c.25-.82.75-.86,1.12-.09l14.69,30.69a1.7,1.7,0,0,1-.67,2.17l-29.37,17C307.61,207.44,307.21,207.12,307.46,206.3Z" style="fill:#fff;opacity:0.5"></path><path d="M322.09,183.46l-.37-8.33c-.07-1.63-.1-2.8-.1-3.53a6.38,6.38,0,0,1,.5-2.6,3.37,3.37,0,0,1,1.33-1.6c.66-.38,1.11-.28,1.33.29a8.55,8.55,0,0,1,.34,2.87c0,.79,0,1.6-.08,2.44l-.5,9.08a13.09,13.09,0,0,1-.35,2.61,2.11,2.11,0,0,1-.88,1.35c-.42.24-.71.14-.87-.31A9.35,9.35,0,0,1,322.09,183.46Zm1.29,10a1,1,0,0,1-1.23,0,2,2,0,0,1-.53-1.66,5.14,5.14,0,0,1,.5-2.18,3.31,3.31,0,0,1,1.24-1.49,1,1,0,0,1,1.24.06,2.07,2.07,0,0,1,.52,1.59,5,5,0,0,1-.52,2.26A3.37,3.37,0,0,1,323.38,193.42Z" style="fill:#fff"></path></g><g id="freepik--Virus--inject-678"><path d="M316.85,274.79h0l0,0h0l0,0h0a.14.14,0,0,0-.11,0,.34.34,0,0,0-.11.07,1.41,1.41,0,0,0-.33.68l-.08,0a10.66,10.66,0,0,1-1.21.27c-.41.07-.64,0-.72-.25a11.74,11.74,0,0,0,0-2.45.71.71,0,0,1,.15-.33,2.19,2.19,0,0,1,.33-.37l0,0c.07.21.17.33.27.29a.25.25,0,0,0,.08-.05l.08-.09,0,0h0l0,0v0l0,0h0a1.61,1.61,0,0,0,0-.63.61.61,0,0,0-.21-.42h-.09a.2.2,0,0,0-.09.05l-.08.09a1.15,1.15,0,0,0-.11.61l0,0a1.73,1.73,0,0,1-.36.24.17.17,0,0,1-.21,0,6.86,6.86,0,0,0-.34-1.14,5.76,5.76,0,0,0-.44-.86c0-.22,0-.54.44-1.23s.48-.83.81-1.35l0-.06a.41.41,0,0,0,.57.05.58.58,0,0,0,.13-.14,1.54,1.54,0,0,0,.08-.19l0-.05h0a.64.64,0,0,1,0-.07v-.09h0a1.11,1.11,0,0,0-.25-.72.58.58,0,0,0-.55-.26h-.07l0,0h0l0,0a1,1,0,0,0-.12.15.76.76,0,0,0-.09.18,1,1,0,0,0,.11.78l0,.07c-.33.51-.37.54-.87,1.26s-.65.79-.81.77a3.4,3.4,0,0,0-1.34-.76,2.51,2.51,0,0,1,.16-1.17c0-.11.06-.29.21-.75l0,0a.53.53,0,0,0,.43-.24l.06-.13a.39.39,0,0,0,0-.14v0h0V266h0a.41.41,0,0,0-.35-.26.64.64,0,0,0-.49.11h0l0,0h0l0,0h0l0,0a.81.81,0,0,0-.06.13.35.35,0,0,0,0,.14.37.37,0,0,0,.23.35v0c-.16.46-.23.57-.29.74a2.89,2.89,0,0,1-.61,1.09,4.67,4.67,0,0,0-1.62.23c-.18-.11-.29-.58-.26-1.48s.07-1.79.11-2.43c0,0,0-.06,0-.1a1.45,1.45,0,0,0,.64-.7.65.65,0,0,0,0-.2.35.35,0,0,0,0-.18,0,0,0,0,0,0,0v0l0,0h0l0,0h0a.76.76,0,0,0-.68.05,1.83,1.83,0,0,0-.73.59h0l0,.05,0,0a.43.43,0,0,0,0,.07v0a.08.08,0,0,0,0,0,.78.78,0,0,0,0,.21.46.46,0,0,0,0,.17c0,.19.28.24.59.15a.31.31,0,0,0,0,.1c0,.64-.12,1.54-.22,2.47a4.18,4.18,0,0,1-.49,1.84,9.25,9.25,0,0,0-1.56,1.16c-.19.09-.38,0-.53-.32s-.26-.69-.34-.95v0a1.24,1.24,0,0,0,.32-.63.53.53,0,0,0,0-.13.19.19,0,0,0-.05-.09h-.1a1,1,0,0,0-.52.34,2,2,0,0,0-.44.65h0l0,0v0l0,.06h0v0a.53.53,0,0,0,0,.13.19.19,0,0,0,.05.09c.07.07.23,0,.42-.13v0c.08.26.17.64.25,1a1.49,1.49,0,0,1-.13,1,14.72,14.72,0,0,0-1.35,1.86c-.26.19-.72.11-1.36-.37l-.95-.8-.09-.08a1.94,1.94,0,0,0,.28-1.11.24.24,0,0,0-.08-.13.15.15,0,0,0-.13-.05h-.1l0,0-.05,0h0a2.68,2.68,0,0,0-.71.9,3.35,3.35,0,0,0-.43,1.16h0s0,0,0,.06v0a.17.17,0,0,0,0,.07v0s0,0,0,0a.27.27,0,0,0,.08.14.21.21,0,0,0,.12.05c.17,0,.46-.28.74-.72l.08.07a11.82,11.82,0,0,1,.88.94c.61.61.82,1.14.75,1.51a18.09,18.09,0,0,0-.79,2,1.48,1.48,0,0,1-1.15.57c-.58.06-.54.12-.93.13h-.12c.06-.34.05-.6,0-.66a.13.13,0,0,0-.09,0,.21.21,0,0,0-.11,0l0,0h0l0,0,0,0,0,0h0a2.53,2.53,0,0,0-.37.82,2,2,0,0,0-.08.83h0v.06l0,0h0s0,0,0,0l.09,0,.12,0a1.3,1.3,0,0,0,.39-.63h.12a4.86,4.86,0,0,1,.88,0c.53.05.8.26.85.54a14,14,0,0,0-.31,2.35.91.91,0,0,1-.23.55,1.93,1.93,0,0,1-.36.3l0,0c0-.24-.1-.4-.2-.39l-.08,0L300,282v0h0l0,0v.06h0a1.75,1.75,0,0,0-.12.65.8.8,0,0,0,.13.52H300l.09,0,.09-.08a1.2,1.2,0,0,0,.18-.62l0,0a1.8,1.8,0,0,1,.36-.14c.13,0,.21.14.23.32a9.24,9.24,0,0,0,.31,1.81,4.67,4.67,0,0,1-1,1.61c-.61.76-1.2,1.48-1.64,2l-.07.08c-.12-.19-.28-.27-.4-.19a.44.44,0,0,0-.11.09.6.6,0,0,0-.09.15l0,0v0a.14.14,0,0,1,0,.06v0a.06.06,0,0,0,0,0h0a1.44,1.44,0,0,0,.08.73c.1.24.24.39.37.4h.13l.11-.1a.42.42,0,0,0,.09-.14,1.1,1.1,0,0,0,0-.71l.07-.08c.44-.5,1-1.18,1.68-1.87s1-.93,1.24-.93a4.22,4.22,0,0,0,.95,1.21c.06.19,0,.51-.32,1.26s-.4.91-.69,1.49l0,.07a.53.53,0,0,0-.62.13.64.64,0,0,0-.11.16,1,1,0,0,0-.07.2v.21h0a.85.85,0,0,0,.37.57.66.66,0,0,0,.63.07h0l0,0,0,0,.05,0h0l0,0a.71.71,0,0,0,.11-.17,1.46,1.46,0,0,0,.07-.19A.75.75,0,0,0,302,290l0-.08c.28-.57.32-.62.76-1.44s.58-.9.75-1a3.32,3.32,0,0,0,1.51.3,1.9,1.9,0,0,1,0,1.14,7.1,7.1,0,0,1-.12.75v0a.73.73,0,0,0-.43.34.58.58,0,0,0-.05.14.62.62,0,0,0,0,.13v0h0s0,0,0,0h0l0,0h0a.42.42,0,0,0,.41.13.92.92,0,0,0,.5-.25h0l0,0,0,0,0,0v0l0,0a1.21,1.21,0,0,0,.05-.14.71.71,0,0,0,0-.14c0-.13-.12-.23-.3-.24v-.05c.11-.47.16-.58.21-.76a3.07,3.07,0,0,1,.51-1.2,6.25,6.25,0,0,0,1.67-.68c.2.05.38.44.49,1.27s.17,1.65.22,2.24c0,0,0,.06,0,.09a1.71,1.71,0,0,0-.58.82.71.71,0,0,0,0,.2.33.33,0,0,0,0,.15s0,0,0,0h0l0,0h.06a1,1,0,0,0,.72-.25,2.29,2.29,0,0,0,.69-.75h0l0-.05a.08.08,0,0,1,0,0s0-.05,0-.07v0s0,0,0-.05a1.23,1.23,0,0,0,0-.2.33.33,0,0,0-.05-.15c-.07-.15-.32-.13-.64,0v-.09c-.05-.6-.1-1.43-.13-2.31a3.66,3.66,0,0,1,.26-1.79,12.43,12.43,0,0,0,1.42-1.4l.12-.16c.18-.1.38-.06.56.18s.38.55.51.76v0a1.36,1.36,0,0,0-.25.67.35.35,0,0,0,0,.11.13.13,0,0,0,.07.06h.11a1.47,1.47,0,0,0,.51-.47,2.43,2.43,0,0,0,.37-.71h0v-.07a.09.09,0,0,0,0-.05h0v0a.27.27,0,0,0,0-.12.13.13,0,0,0-.07-.06c-.08,0-.24.06-.43.25l0,0c-.11-.22-.27-.53-.41-.87a1.2,1.2,0,0,1,0-.87,16.61,16.61,0,0,0,1.23-2.13,1.15,1.15,0,0,1,1.19-.14c.56.16,1.09.36,1.46.5l.06,0a1.63,1.63,0,0,0-.14,1.08.24.24,0,0,0,.1.1.19.19,0,0,0,.15,0h.05l.05,0,0,0s0,0,0,0h0a3,3,0,0,0,.63-1,3.33,3.33,0,0,0,.3-1.17h0a.13.13,0,0,1,0-.06v0s0,0,0-.06v0l0,0a.24.24,0,0,0-.1-.1h-.14c-.18,0-.45.38-.68.87l-.06,0c-.37-.15-.88-.38-1.4-.65s-.74-.61-.74-.93a18,18,0,0,0,.64-2.27,1.68,1.68,0,0,1,.87-.71c.46-.18.91-.33,1.23-.42l.08,0c0,.32,0,.55.14.58a.11.11,0,0,0,.1,0,.37.37,0,0,0,.12-.07l0,0h0l0,0,0,0,0,0h0a2.34,2.34,0,0,0,.28-.86A1.64,1.64,0,0,0,316.85,274.79ZM303,281.93c-.52.33-1-.15-1-1.06a2.82,2.82,0,0,1,.9-2.25c.53-.32,1,.15,1,1.07A2.78,2.78,0,0,1,303,281.93Zm1.12,3.16c-.18.32-.51.42-.73.22a.83.83,0,0,1-.06-.95c.19-.33.51-.43.73-.23A.83.83,0,0,1,304.08,285.09Zm.88-9.64c-.31.7-.8,1.16-1.1,1s-.28-.82,0-1.53.8-1.16,1.1-1S305.27,274.74,305,275.45Zm.68,4.59c.25-.41.66-.53.94-.26a1.09,1.09,0,0,1,.06,1.24c-.25.41-.66.53-.94.26A1.09,1.09,0,0,1,305.64,280Zm1.64,5a1.45,1.45,0,0,1-1.07,1.11c-.48.07-.77-.32-.66-.86a1.47,1.47,0,0,1,1.08-1.12C307.11,284.16,307.4,284.54,307.28,285.09Zm0-8.86c-.35.56-.8.82-1,.58s-.08-.89.27-1.45.81-.82,1-.58S307.6,275.67,307.24,276.23Zm.11-4c-.32.25-.61.21-.65-.1a1.31,1.31,0,0,1,.53-1c.32-.25.61-.21.65.1A1.31,1.31,0,0,1,307.35,272.23Zm1.28,8.57c-.17-.16-.1-.63.15-1.06s.58-.65.74-.5.09.63-.15,1.06S308.79,281,308.63,280.8Zm.94,3.32c-.3.35-.63.42-.72.17a1.31,1.31,0,0,1,.38-1.07c.3-.34.62-.41.72-.16A1.3,1.3,0,0,1,309.57,284.12Zm.52-7.1c-.33.46-.8.48-1.06.07a1.51,1.51,0,0,1,.1-1.57c.32-.45.79-.48,1.06-.07A1.54,1.54,0,0,1,310.09,277Zm-.16-4.63a1.11,1.11,0,0,1,.83-2,1,1,0,0,1,.33,1.29A1,1,0,0,1,309.93,272.39Zm2.35,6.54c-.19.73-.62,1.33-1,1.35s-.49-.57-.3-1.29.62-1.34,1-1.35S312.47,278.2,312.28,278.93Zm.32-4c-.27.25-.57.1-.66-.33a1.45,1.45,0,0,1,.33-1.24c.28-.25.57-.1.66.33A1.39,1.39,0,0,1,312.6,274.93Z" style="fill:#D1FF0A"></path></g><path d="M323.54,271.25a.5.5,0,0,1-.25-.93l22.51-13a.5.5,0,1,1,.5.86l-22.51,13A.47.47,0,0,1,323.54,271.25Z" style="fill:#ffa8a7"></path><path d="M323.54,276.35a.5.5,0,0,1-.25-.93l22.51-13a.51.51,0,0,1,.69.18.52.52,0,0,1-.19.69l-22.51,13A.57.57,0,0,1,323.54,276.35Z" style="fill:#ffa8a7"></path><path d="M323.54,281.45a.5.5,0,0,1-.25-.93l22.51-13a.5.5,0,1,1,.5.87l-22.51,13A.57.57,0,0,1,323.54,281.45Z" style="fill:#ffa8a7"></path></g><g id="freepik--Title--inject-678"><path d="M333.36,74.29a.67.67,0,0,1,.8,0,1,1,0,0,1,.34.87v4a2.77,2.77,0,0,1-.34,1.26,2.13,2.13,0,0,1-.8.91l-7.56,4.36v30.69a2.69,2.69,0,0,1-.33,1.26,2.2,2.2,0,0,1-.8.91l-3.41,2a.67.67,0,0,1-.79,0,1,1,0,0,1-.34-.87V88.93l-7.56,4.36a.67.67,0,0,1-.8,0,1,1,0,0,1-.33-.87v-4a2.76,2.76,0,0,1,.33-1.26,2.13,2.13,0,0,1,.8-.91Z" style="fill:#D1FF0A"></path></g><g id="freepik--Subtitles--inject-678"><path d="M310.39,157v-6.43l-1.11.64c-.06,0-.11,0-.14,0a.72.72,0,0,1,0-.27v-.22a1.34,1.34,0,0,1,0-.33.3.3,0,0,1,.14-.17l3.11-1.8c.07,0,.12,0,.14,0a.58.58,0,0,1,.05.28v.22a1,1,0,0,1-.05.33.26.26,0,0,1-.14.17l-1.1.64v6.43a.59.59,0,0,1-.36.49l-.18.1C310.51,157.23,310.39,157.21,310.39,157Z" style="fill:#455a64"></path><path d="M313.3,155.34v-7.19c0-.19.12-.35.37-.49l.19-.11c.23-.13.34-.1.34.08v3l2-1.13v-3a.57.57,0,0,1,.36-.48l.17-.1c.25-.14.37-.12.37.06v7.19c0,.19-.12.35-.37.49l-.17.1c-.24.14-.36.12-.36-.07v-3.18l-2,1.13v3.18a.57.57,0,0,1-.34.48l-.19.11C313.42,155.55,313.3,155.53,313.3,155.34Z" style="fill:#455a64"></path><path d="M318.24,152.49V145.4a.55.55,0,0,1,.26-.51l1.27-.73c.53-.31.94-.38,1.21-.23s.42.59.42,1.31a3.65,3.65,0,0,1-.77,2.3v0a.43.43,0,0,1,.3.27,3.42,3.42,0,0,1,.27.7l.51,1.85s0,0,0,.07a.2.2,0,0,1,0,.07c0,.14-.12.28-.38.43l-.18.1a.55.55,0,0,1-.24.09.12.12,0,0,1-.12-.09l-.48-1.87a.93.93,0,0,0-.28-.53c-.11-.07-.27,0-.48.08l-.43.25v3a.59.59,0,0,1-.37.49l-.16.09C318.37,152.69,318.24,152.67,318.24,152.49Zm1.62-5a1.15,1.15,0,0,0,.45-.62,2.72,2.72,0,0,0,.19-1,1.12,1.12,0,0,0-.19-.78c-.12-.12-.28-.12-.49,0l-.69.4V148Z" style="fill:#455a64"></path><path d="M322.55,150.17a.35.35,0,0,1-.06-.24v-7a.75.75,0,0,1,.06-.31.44.44,0,0,1,.19-.19l2.39-1.39q.18-.1.18.3v.22c0,.26-.06.43-.18.5l-1.74,1v2.25l1.56-.9c.12-.07.18,0,.18.29v.22c0,.26-.06.43-.18.5l-1.56.9v2.42l1.74-1c.07,0,.11,0,.14,0a.61.61,0,0,1,0,.28v.22a1,1,0,0,1,0,.33.27.27,0,0,1-.14.17l-2.39,1.39C322.65,150.2,322.59,150.2,322.55,150.17Z" style="fill:#455a64"></path><path d="M325.75,148.23s0-.08,0-.17l1.42-8a.75.75,0,0,1,.38-.46l.35-.2c.23-.13.36-.12.38,0l1.43,6.31a1,1,0,0,1,0,.15c0,.13-.1.26-.32.39l-.22.12c-.21.12-.32.12-.34,0l-.31-1.49-1.63.94-.3,1.85a.63.63,0,0,1-.34.38l-.21.12C325.86,148.37,325.75,148.36,325.75,148.23Zm2.64-4.17-.53-2.51c0-.11-.05-.33-.09-.67l0,0,0,.28c0,.13,0,.29-.07.49l-.52,3.11Z" style="fill:#455a64"></path><path d="M331.05,145.1v-6.44l-1.12.64c-.06,0-.1,0-.13,0a.61.61,0,0,1,0-.28v-.22a1,1,0,0,1,0-.33.33.33,0,0,1,.13-.17l3.12-1.8c.07,0,.11,0,.14,0a.61.61,0,0,1,0,.28V137a1,1,0,0,1,0,.33.27.27,0,0,1-.14.17l-1.1.64v6.44c0,.18-.12.34-.37.48l-.17.1Q331.05,145.37,331.05,145.1Z" style="fill:#455a64"></path><path d="M334.3,143.4a1,1,0,0,1-.59-.05.31.31,0,0,1-.07-.09.24.24,0,0,1,0-.14,2.13,2.13,0,0,1,.08-.52c.05-.2.1-.31.17-.35l.1,0,.08,0a1.11,1.11,0,0,0,1-.16,1.69,1.69,0,0,0,.62-.65,1.89,1.89,0,0,0,.24-.95.8.8,0,0,0-.2-.64,1.33,1.33,0,0,0-.62-.2,2.72,2.72,0,0,1-.72-.17.85.85,0,0,1-.44-.42,2,2,0,0,1-.17-.92,3.77,3.77,0,0,1,.47-1.85,3.32,3.32,0,0,1,1.24-1.28,2.06,2.06,0,0,1,.56-.24,1.07,1.07,0,0,1,.47,0s.08.06.08.15a2.45,2.45,0,0,1-.08.52c-.06.22-.11.34-.18.38a.37.37,0,0,1-.14,0,1.35,1.35,0,0,0-.71.2,1.75,1.75,0,0,0-.83,1.5,1,1,0,0,0,.11.51.56.56,0,0,0,.3.23,3.76,3.76,0,0,0,.52.12,2.45,2.45,0,0,1,.66.16,1,1,0,0,1,.42.43,2.17,2.17,0,0,1,.15.91,3.89,3.89,0,0,1-.47,1.89,3.42,3.42,0,0,1-1.27,1.34A2.47,2.47,0,0,1,334.3,143.4Z" style="fill:#455a64"></path></g></g><g id="freepik--Opportunities--inject-678"><g id="freepik--opportunities--inject-678"><g id="freepik--note--inject-678"><polygon points="230.35 290.22 230.35 322.04 256.7 306.82 256.7 275.01 230.35 290.22" style="opacity:0.1"></polygon><path d="M263.29,305.05s-1.29,2.18-5.88,4.83l-23.22,13.4-2.78-27.65,26.35-15.21,1.48,16C259.47,299,259.85,302.83,263.29,305.05Z" style="fill:#D1FF0A"></path><path d="M263.29,305.05s-1.29,2.18-5.88,4.83l-23.22,13.4-2.78-27.65,26.35-15.21,1.48,16C259.47,299,259.85,302.83,263.29,305.05Z" style="opacity:0.2"></path><polygon points="257.76 280.42 231.41 295.63 231.41 290.75 257.76 275.54 257.76 280.42" style="fill:#D1FF0A"></polygon><polygon points="257.76 280.42 231.41 295.63 231.41 290.75 257.76 275.54 257.76 280.42" style="opacity:0.4"></polygon></g><path d="M238.21,306,251,298.68c.59-.35,1.07-.1,1.07.54A2.3,2.3,0,0,1,251,301l-12.75,7.36c-.59.35-1.07.1-1.07-.54A2.3,2.3,0,0,1,238.21,306Z" style="fill:#fff"></path><path d="M238.21,311,251,303.68c.59-.35,1.07-.1,1.07.54A2.3,2.3,0,0,1,251,306l-12.75,7.36c-.59.35-1.07.1-1.07-.54A2.3,2.3,0,0,1,238.21,311Z" style="fill:#fff"></path><path d="M243.19,294.53l11.2-6.45c.59-.34,1.07-.1,1.07.54a2.3,2.3,0,0,1-1.07,1.78l-11.2,6.46c-.59.34-1.08.1-1.08-.55A2.31,2.31,0,0,1,243.19,294.53Z" style="fill:#fff"></path><g id="freepik--note--inject-678"><polygon points="252.66 289.52 252.66 320.56 278.38 305.71 278.38 274.67 252.66 289.52" style="opacity:0.1"></polygon><path d="M284.81,304s-1.25,2.12-5.74,4.71l-22.65,13.08-2.72-27L279.42,280l1.43,15.61C281.09,298.11,281.46,301.82,284.81,304Z" style="fill:#D1FF0A"></path><polygon points="279.42 279.95 253.7 294.8 253.7 290.03 279.42 275.18 279.42 279.95" style="fill:#D1FF0A"></polygon><polygon points="279.42 279.95 253.7 294.8 253.7 290.03 279.42 275.18 279.42 279.95" style="opacity:0.1"></polygon></g><path d="M258.89,302.79l12.44-7.19c.58-.33,1.05-.1,1.05.53a2.25,2.25,0,0,1-1.05,1.74l-12.44,7.18c-.58.34-1.05.1-1.05-.52A2.23,2.23,0,0,1,258.89,302.79Z" style="fill:#455a64"></path><path d="M258.89,297.19,271.33,290c.58-.34,1.05-.1,1.05.52a2.23,2.23,0,0,1-1.05,1.74l-12.44,7.19c-.58.33-1.05.1-1.05-.53A2.25,2.25,0,0,1,258.89,297.19Z" style="fill:#455a64"></path><path d="M266.83,304.71l10.93-6.3c.58-.34,1.05-.1,1.05.53a2.27,2.27,0,0,1-1.05,1.74L266.83,307c-.58.33-1.05.09-1.05-.53A2.23,2.23,0,0,1,266.83,304.71Z" style="fill:#455a64"></path><g id="freepik--arrow--inject-678"><polygon points="252.45 251.67 252.45 270.45 265.73 262.79 265.73 244.01 271.58 240.63 259.09 228.41 246.6 255.05 252.45 251.67" style="fill:#D1FF0A"></polygon><polygon points="252.45 251.67 252.45 270.45 265.73 262.79 265.73 244.01 271.58 240.63 259.09 228.41 246.6 255.05 252.45 251.67" style="fill:#fff;opacity:0.5"></polygon></g><g id="freepik--Hands--inject-678"><path d="M240.47,207a33.7,33.7,0,0,0-2.05,8.2,74.17,74.17,0,0,0-.51,9.1,57.15,57.15,0,0,1,6.15-2.68c1.45-.47,1.81.12,3,.54s9.88,1.1,11.53.54a11.07,11.07,0,0,0,3.07-1.25c1.21-.88,3-2.7,1.92-4.44,2,.44,4.26-1.8,4.1-4.26,1.07.58,2.92-.33,3.87-2.28a3.42,3.42,0,0,0,0-2.51c-3.13-9-4.95-7.82-13.63-8.08a13.58,13.58,0,0,0-7.9,1.83C247.55,203.1,241.85,205.81,240.47,207Z" style="fill:#b16668"></path><path d="M257.43,223.56a8.84,8.84,0,0,0,1.06-1.53,2.92,2.92,0,0,0,.38-1.77c-.34-1.49-2.22-.16-3.18.56l.54-1a4.61,4.61,0,0,0,.68-1.95.9.9,0,0,0-.49-.91,1.5,1.5,0,0,0-1,.07,5.33,5.33,0,0,0-1.12.56c-.07,0-.69.42-.7.44a8.13,8.13,0,0,0,.71-1.84c.36-1.68-.65-2.21-1.7-1.53a8.1,8.1,0,0,0-1.57,1.58,24.83,24.83,0,0,0-4.34,6.85c-.26.72-.45,1.59-.14,2a1.29,1.29,0,0,0,1.52.25,8.93,8.93,0,0,0,2.23-1.52,2.67,2.67,0,0,0-.19,2c.5,1.28,2,.27,3.06-.55-.1.5.11.85.4.92C254.83,226.44,256.23,225,257.43,223.56Z" style="fill:#ffa8a7"></path><path d="M267.66,191.13a29.91,29.91,0,0,0-6.71,1.51,6.18,6.18,0,0,0-2.05,1.3,13.14,13.14,0,0,0-1.91,2.65,99.58,99.58,0,0,0-5.26,10.17,4,4,0,0,0-.23.63,1,1,0,0,0,.27,1.05,1,1,0,0,0,.9,0c1.39-.5,2.78-2.17,3.92-3.93a15.57,15.57,0,0,1,2.08-2.87,4.53,4.53,0,0,1,2.82-1.22,11.9,11.9,0,0,1,5.68.35c.64.27,1.65,1.74,2.7,3.4a30.16,30.16,0,0,1,1.69,3.81c2.41-2.46,4.41-4.8,6.35-6.12a62.92,62.92,0,0,0-1.14-10.23c-.21-1.13-1.22-4-1.22-4s-1.86,1-2.88,1.54A24.07,24.07,0,0,1,267.66,191.13Z" style="fill:#ffa8a7"></path><path d="M240.76,206.15A62.34,62.34,0,0,0,238.89,217c-.51,6.12-.51,7.64-.51,7.64l-4.27,2.47a87.84,87.84,0,0,1,2.44-18.53Z" style="fill:#455a64"></path><path d="M275,187.22a31.24,31.24,0,0,1,1.87,8.69c.51,5.53.51,7.06.51,7.06l4.27-2.47a57.09,57.09,0,0,0-2.44-15.71Z" style="fill:#455a64"></path><path d="M263,216.21a4.81,4.81,0,0,0-.44-.57,4.22,4.22,0,0,0-.9-.74,6.61,6.61,0,0,0-2.21-.92c-.13,0-.14.27-.05.3a8.46,8.46,0,0,1,2.09,1.08c.32.22.61.5.94.72a6.26,6.26,0,0,1,.51.39,3,3,0,0,0,.38.34s0-.06,0-.08A4.72,4.72,0,0,0,263,216.21Z" style="fill:#9a4a4d"></path><path d="M267.33,212a6.77,6.77,0,0,0-.44-.58,4.49,4.49,0,0,0-.9-.74,6.82,6.82,0,0,0-2.21-.92c-.13,0-.14.27,0,.3a8.4,8.4,0,0,1,2.08,1.08c.33.22.62.5.94.72a6.54,6.54,0,0,1,.52.4c.13.1.24.25.38.34s0-.07,0-.09C267.58,212.34,267.44,212.19,267.33,212Z" style="fill:#9a4a4d"></path><path d="M253.2,218.64a2.71,2.71,0,0,0-.44.5c-.14.17-.28.35-.41.54-.25.38-.5.76-.74,1.16s-.44.77-.64,1.17c-.1.18-.2.37-.29.56l-.15.32c-.05.1-.07.2-.11.3s0,.18,0,.12.13-.17.2-.28.11-.19.17-.29l.34-.59c.22-.39.44-.79.67-1.17s.43-.73.66-1.08.27-.42.41-.62a4.13,4.13,0,0,0,.32-.49c0-.06,0-.19,0-.15Z" style="fill:#f28f8f"></path><path d="M255.5,221a1.61,1.61,0,0,0-.27.38c-.11.16-.22.31-.32.47l-.58,1c-.17.31-.35.62-.52.94l-.24.49-.09.21c0,.11-.06.19-.1.3s0,.18,0,.11.11-.13.16-.21.09-.15.13-.22l.29-.49.55-1,.53-.93c.08-.16.16-.32.25-.48a2.23,2.23,0,0,0,.22-.47c0-.05,0-.14-.05-.1Z" style="fill:#f28f8f"></path></g></g><path d="M244.18,142.17a32.43,32.43,0,0,1,.9-6.43,27.16,27.16,0,0,1,2.29-6.14,26.21,26.21,0,0,1,3.78-5.43,22,22,0,0,1,5.38-4.31,12.57,12.57,0,0,1,5.33-1.9,5.36,5.36,0,0,1,3.78,1.07,7.41,7.41,0,0,1,2.31,3.48,19,19,0,0,1,.93,5.4c0,.7,0,1.47.06,2.32s0,1.73,0,2.65,0,1.8,0,2.67,0,1.66-.06,2.39a33.2,33.2,0,0,1-.91,6.43,27.16,27.16,0,0,1-2.29,6.14,25,25,0,0,1-3.8,5.41,22.41,22.41,0,0,1-5.35,4.27,12.76,12.76,0,0,1-5.38,1.93,5.44,5.44,0,0,1-3.78-1,7.15,7.15,0,0,1-2.29-3.49,19.38,19.38,0,0,1-.9-5.39c0-.69-.05-1.47-.07-2.32s0-1.73,0-2.65,0-1.8,0-2.67S244.15,142.9,244.18,142.17Zm19-10.7c-.11-2.63-.76-4.33-1.95-5.12s-2.76-.62-4.72.51a12.48,12.48,0,0,0-4.73,5,16.42,16.42,0,0,0-2,7.37c-.06,1.45-.09,3-.09,4.78s0,3.3.09,4.68c.11,2.63.76,4.32,2,5.09s2.76.59,4.73-.54a12.55,12.55,0,0,0,4.72-4.91,16.3,16.3,0,0,0,1.95-7.35c.06-1.45.09-3,.09-4.78S263.26,132.85,263.2,131.47Z" style="fill:#D1FF0A"></path><path d="M232,201.65a4.49,4.49,0,0,1-.53-2.65c0-2.61.69-4.32,2.09-5.12s2.09.09,2.09,2.7-.7,4.34-2.09,5.15C232.84,202.12,232.32,202.1,232,201.65Zm2.44-2.15a7.64,7.64,0,0,0,.29-2.39,4.59,4.59,0,0,0-.29-2c-.19-.35-.49-.41-.88-.18a2,2,0,0,0-.88,1.19,7.72,7.72,0,0,0-.29,2.37,4.94,4.94,0,0,0,.29,2.06c.2.35.49.42.88.19A2.05,2.05,0,0,0,234.41,199.5Z" style="fill:#455a64"></path><path d="M236.56,199.65v-7.09a.75.75,0,0,1,.06-.31.48.48,0,0,1,.2-.2l1.37-.79a1.21,1.21,0,0,1,1.08-.15c.31.14.47.63.47,1.49a4.2,4.2,0,0,1-.27,1.59,3.48,3.48,0,0,1-.61,1,2.39,2.39,0,0,1-.6.52l-.81.47v2.91a.59.59,0,0,1-.36.49l-.17.09Q236.56,199.92,236.56,199.65Zm1.63-4.86a1.25,1.25,0,0,0,.45-.54,2.66,2.66,0,0,0,.2-1.13c0-.46-.07-.73-.2-.84a.44.44,0,0,0-.49,0l-.7.41v2.52Z" style="fill:#455a64"></path><path d="M240.54,197.35v-7.08a.68.68,0,0,1,.06-.31.41.41,0,0,1,.19-.2l1.38-.8a1.15,1.15,0,0,1,1.07-.14c.32.13.47.63.47,1.48a4.2,4.2,0,0,1-.27,1.59,3.35,3.35,0,0,1-.6,1,3.23,3.23,0,0,1-.6.53l-.81.46v2.92q0,.27-.36.48l-.17.1C240.66,197.56,240.54,197.54,240.54,197.35Zm1.63-4.86a1.2,1.2,0,0,0,.45-.54,2.65,2.65,0,0,0,.19-1.13c0-.45-.06-.73-.2-.83a.4.4,0,0,0-.48,0l-.7.4v2.52Z" style="fill:#455a64"></path><path d="M244.86,194.21a4.61,4.61,0,0,1-.53-2.66q0-3.92,2.09-5.12c1.4-.81,2.1.1,2.1,2.71s-.7,4.34-2.1,5.15C245.74,194.68,245.22,194.65,244.86,194.21Zm2.45-2.15a8,8,0,0,0,.29-2.39,4.8,4.8,0,0,0-.29-2c-.2-.34-.49-.41-.88-.18a2.11,2.11,0,0,0-.89,1.19,7.84,7.84,0,0,0-.28,2.38,4.89,4.89,0,0,0,.29,2c.19.36.49.42.88.2A2.13,2.13,0,0,0,247.31,192.06Z" style="fill:#455a64"></path><path d="M249.47,192.19v-7.08a.55.55,0,0,1,.26-.51l1.27-.74c.53-.3.94-.38,1.21-.22s.41.59.41,1.3a3.62,3.62,0,0,1-.76,2.3v0c.11,0,.21.1.3.26a3.67,3.67,0,0,1,.27.7l.51,1.85s0,.06,0,.08a.15.15,0,0,1,0,.07c0,.13-.12.28-.38.42l-.18.11a.52.52,0,0,1-.24.08.11.11,0,0,1-.12-.08l-.48-1.87a.93.93,0,0,0-.28-.54q-.17-.09-.48.09l-.43.24v3c0,.19-.12.35-.37.49l-.16.09C249.6,192.4,249.47,192.38,249.47,192.19Zm1.62-5a1.12,1.12,0,0,0,.45-.61,2.73,2.73,0,0,0,.18-1,1.15,1.15,0,0,0-.18-.77c-.12-.12-.28-.12-.49,0l-.69.39v2.41Z" style="fill:#455a64"></path><path d="M254.55,189.26v-6.44l-1.11.65c-.06,0-.1,0-.13,0a.61.61,0,0,1,0-.28V183a1,1,0,0,1,0-.33.3.3,0,0,1,.13-.16l3.12-1.81c.06,0,.11,0,.14,0a.58.58,0,0,1,0,.28v.22a.92.92,0,0,1,0,.32.37.37,0,0,1-.14.18l-1.11.63v6.44a.6.6,0,0,1-.36.49l-.17.1C254.68,189.46,254.55,189.44,254.55,189.26Z" style="fill:#455a64"></path><path d="M257.89,187.07c-.33-.2-.5-.66-.5-1.37v-5.27c0-.19.12-.35.37-.49l.17-.1c.24-.14.36-.12.36.07v5.26a.84.84,0,0,0,.28.74.63.63,0,0,0,.71-.06,1.87,1.87,0,0,0,.71-.76,2.26,2.26,0,0,0,.27-1.06v-5.26a.57.57,0,0,1,.37-.48l.17-.1q.36-.21.36.06v5.27a3.92,3.92,0,0,1-.49,1.95,3.71,3.71,0,0,1-1.39,1.39C258.68,187.21,258.22,187.28,257.89,187.07Z" style="fill:#455a64"></path><path d="M262.24,184.82v-7.19q0-.27.36-.48l.2-.12A.43.43,0,0,1,263,177c.06,0,.11,0,.14.11l1.79,3.5a3.81,3.81,0,0,1,.23.61l0,0a4.62,4.62,0,0,1-.06-.74V176a.57.57,0,0,1,.36-.48l.12-.08c.25-.14.37-.11.37.07v7.19c0,.19-.12.35-.37.49l-.16.09c-.18.11-.29.1-.34,0l-1.85-3.63a2,2,0,0,1-.22-.57l0,0a4.41,4.41,0,0,1,.06.7v4.56a.59.59,0,0,1-.36.49l-.12.07C262.36,185,262.24,185,262.24,184.82Z" style="fill:#455a64"></path><path d="M267.18,182v-7.19a.6.6,0,0,1,.36-.49l.19-.11c.23-.13.35-.11.35.07v7.2a.59.59,0,0,1-.35.48l-.19.11C267.3,182.18,267.18,182.16,267.18,182Z" style="fill:#455a64"></path><path d="M270.14,180.26v-6.43l-1.11.64c-.07,0-.11,0-.14,0a.58.58,0,0,1,0-.28V174a.92.92,0,0,1,0-.32.27.27,0,0,1,.14-.17l3.11-1.8c.07,0,.12,0,.14,0a.61.61,0,0,1,0,.28v.22a1,1,0,0,1,0,.33.29.29,0,0,1-.14.17l-1.1.64v6.43a.59.59,0,0,1-.36.49l-.18.1C270.26,180.47,270.14,180.45,270.14,180.26Z" style="fill:#455a64"></path><path d="M273.08,178.56v-7.19c0-.19.12-.35.37-.49l.19-.11c.23-.13.35-.11.35.07V178a.59.59,0,0,1-.35.48l-.19.11C273.2,178.77,273.08,178.75,273.08,178.56Z" style="fill:#455a64"></path><path d="M275.27,177.46s-.06-.11-.06-.24v-7a.68.68,0,0,1,.06-.31.46.46,0,0,1,.19-.2l2.39-1.38c.12-.07.18,0,.18.29v.22c0,.27-.06.43-.18.5l-1.74,1v2.24l1.56-.9c.12-.07.18,0,.18.29v.22c0,.27-.06.44-.18.5l-1.56.9v2.42l1.74-1c.07,0,.11,0,.14,0a.61.61,0,0,1,0,.28v.22a1,1,0,0,1,0,.33.3.3,0,0,1-.14.17l-2.39,1.38C275.37,177.49,275.31,177.5,275.27,177.46Z" style="fill:#455a64"></path><path d="M279.32,175.14a1,1,0,0,1-.59,0,.27.27,0,0,1-.07-.08.3.3,0,0,1,0-.15,2.07,2.07,0,0,1,.07-.52.65.65,0,0,1,.17-.35.16.16,0,0,1,.1,0h.08a1.11,1.11,0,0,0,1-.16,1.66,1.66,0,0,0,.62-.64,2,2,0,0,0,.24-1,.78.78,0,0,0-.2-.64,1.33,1.33,0,0,0-.62-.2,2.72,2.72,0,0,1-.72-.17.85.85,0,0,1-.44-.42,2,2,0,0,1-.17-.92,3.77,3.77,0,0,1,.47-1.85,3.32,3.32,0,0,1,1.24-1.28,2,2,0,0,1,.56-.23,1,1,0,0,1,.47,0,.14.14,0,0,1,.08.15,2.36,2.36,0,0,1-.08.52.66.66,0,0,1-.17.38l-.15,0a1.23,1.23,0,0,0-.7.21,1.62,1.62,0,0,0-.61.61,1.78,1.78,0,0,0-.23.88.87.87,0,0,0,.12.51.5.5,0,0,0,.29.23,3.62,3.62,0,0,0,.53.12,2.18,2.18,0,0,1,.66.17.88.88,0,0,1,.41.42,2.17,2.17,0,0,1,.15.91,3.89,3.89,0,0,1-.47,1.89,3.36,3.36,0,0,1-1.27,1.34A2.14,2.14,0,0,1,279.32,175.14Z" style="fill:#455a64"></path></g><g id="freepik--Weaknesses--inject-678"><g id="freepik--weaknesses--inject-678"><path d="M195.4,240.77c-11.78,2.29-20.44,11.34-25.7,21.71a51.3,51.3,0,0,0-5.52,19.16,34.87,34.87,0,0,0,.31,8.66,16.8,16.8,0,0,0,2.43,6.7c2.85,4,8.21,5.26,12.88,4.65,5.77-.75,10.43-4.19,14.22-8.42a54.73,54.73,0,0,0,10.09-16.51c2.3-5.81,3.76-12.2,3-18.48-.53-4.4-2.37-9.41-6.68-11.39s-9.15.22-12,3.56a17,17,0,0,0-2.35,3.58c-.19.37.43,1,.68.59,2.24-3.86,6.83-8.28,11.75-7.34,4.37.84,6.5,5.49,7.23,9.42,1.07,5.78,0,11.8-1.88,17.3a56,56,0,0,1-8.73,16.09c-3.38,4.32-7.57,8.39-12.95,10-4.42,1.3-10,1-13.41-2.42a12.16,12.16,0,0,1-2.83-5.92,30.64,30.64,0,0,1-.68-7.88,49,49,0,0,1,4.44-18.5c4.42-9.76,11.66-18.58,21.84-22.6a37.52,37.52,0,0,1,4.08-1.36c.29-.07.1-.65-.19-.59Z" style="fill:#f28f8f"></path><g id="freepik--note--inject-678"><polygon points="170.68 265.48 170.68 298.98 198.43 282.95 198.43 249.46 170.68 265.48" style="opacity:0.1"></polygon><path d="M202.2,284.44l-19.94,11.5c-2.12-1-7.21-3.21-8.55-5.81l-1.91-19,27.75-16Z" style="fill:#D1FF0A"></path><path d="M173.71,290.13c.67,1.48,5.84,2,8.22.9,0,0-.78,3.54.33,4.91,0,0-2,.07-5.21-2S173.71,290.13,173.71,290.13Z" style="fill:#D1FF0A"></path><path d="M173.71,290.13c.67,1.48,5.84,2,8.22.9,0,0-.78,3.54.33,4.91,0,0-2,.07-5.21-2S173.71,290.13,173.71,290.13Z" style="opacity:0.15"></path><polygon points="199.55 255.15 171.8 271.17 171.8 266.03 199.55 250.01 199.55 255.15" style="fill:#D1FF0A"></polygon><polygon points="199.55 255.15 171.8 271.17 171.8 266.03 199.55 250.01 199.55 255.15" style="opacity:0.1"></polygon></g><path d="M179.81,284.35,197,274.44c.63-.36,1.13-.11,1.13.57a2.41,2.41,0,0,1-1.13,1.87l-17.17,9.92c-.62.36-1.13.1-1.13-.57A2.43,2.43,0,0,1,179.81,284.35Z" style="fill:#455a64"></path><path d="M179.81,278.7l10.13-5.85c.63-.36,1.13-.1,1.13.57a2.41,2.41,0,0,1-1.13,1.88l-10.13,5.85c-.62.36-1.13.11-1.13-.57A2.45,2.45,0,0,1,179.81,278.7Z" style="fill:#455a64"></path><path d="M179.81,273l10.13-5.85c.63-.36,1.13-.11,1.13.57a2.41,2.41,0,0,1-1.13,1.87l-10.13,5.86c-.62.36-1.13.1-1.13-.57A2.43,2.43,0,0,1,179.81,273Z" style="fill:#455a64"></path><path d="M214.92,238.53c-.15,2.27.14,4.62.2,6.9s.1,4.37.11,6.56,0,4.26,0,6.38-.25,4.46-.21,6.67a.76.76,0,0,0,.39.73l.31.14a.67.67,0,0,0,.76-.13c.68-.87.47-2.27.51-3.33s.07-2.18.09-3.26q.09-3.51.07-7c0-2.28,0-4.56-.15-6.84a44.52,44.52,0,0,0-.44-6.83c-.15-.74-1.54-.77-1.59,0Z" style="fill:#f28f8f"></path><path d="M217.29,273a1.64,1.64,0,0,0-.32-.71,4.44,4.44,0,0,0-.5-.56,2.07,2.07,0,0,0-.56-.41,1.61,1.61,0,0,0-1.42-.06,1.11,1.11,0,0,0-.54.55,1.14,1.14,0,0,0,0,.75,3.42,3.42,0,0,0,.6,1.11,1.71,1.71,0,0,0,.7.49,1.39,1.39,0,0,0,.94.07l.13-.07a1.2,1.2,0,0,0,.83-.47A1,1,0,0,0,217.29,273Z" style="fill:#f28f8f"></path><g id="freepik--arrow--inject-678"><polygon points="196.72 325.31 196.72 306.53 183.45 314.19 183.45 332.98 177.59 336.36 190.08 348.58 202.58 321.93 196.72 325.31" style="fill:#D1FF0A"></polygon><polygon points="196.72 325.31 196.72 306.53 183.45 314.19 183.45 332.98 177.59 336.36 190.08 348.58 202.58 321.93 196.72 325.31" style="fill:#fff;opacity:0.5"></polygon></g></g><path d="M170.56,237.83l-1.12-6.53,0-.13c0-.16.13-.31.38-.45l.14-.08c.24-.14.37-.14.39,0l.65,4.58c0,.14.05.42.09.83l0,.44.18-1.47.69-5.35a.35.35,0,0,1,.1-.21.85.85,0,0,1,.22-.18l.24-.14a.62.62,0,0,1,.23-.08s.08,0,.09.1l.7,4.57c0,.27.09.69.14,1.28,0-.05,0-.34.1-.87l.07-.59.63-5.32c0-.15.15-.3.39-.44l.12-.07c.25-.14.38-.14.38,0l0,.16-1.14,7.84c0,.13-.12.25-.32.37l-.39.23c-.2.11-.3.11-.32,0l-.68-4L172.4,231l-.12,1.39-.68,4.81a.57.57,0,0,1-.32.38l-.39.22Q170.59,238,170.56,237.83Z" style="fill:#455a64"></path><path d="M176.15,234.68a.38.38,0,0,1-.05-.24v-7a.87.87,0,0,1,.05-.31.52.52,0,0,1,.19-.2l2.4-1.38c.12-.07.18,0,.18.29v.22c0,.26-.06.43-.18.5l-1.74,1v2.24l1.56-.9c.12-.07.18,0,.18.29v.22c0,.26-.06.43-.18.5l-1.56.9v2.42l1.74-1c.06,0,.11,0,.14,0a.78.78,0,0,1,0,.28v.22a1.19,1.19,0,0,1,0,.32.37.37,0,0,1-.14.18l-2.4,1.38C176.26,234.71,176.19,234.72,176.15,234.68Z" style="fill:#455a64"></path><path d="M179.36,232.75a1.62,1.62,0,0,1,0-.18l1.43-8a.68.68,0,0,1,.38-.46l.35-.2c.23-.14.35-.13.37,0l1.43,6.32a.4.4,0,0,1,0,.15c0,.13-.11.26-.33.38l-.22.13c-.2.12-.31.12-.34,0l-.31-1.49-1.62.93-.31,1.85a.56.56,0,0,1-.33.38l-.21.12Q179.36,232.95,179.36,232.75Zm2.64-4.18-.53-2.51c0-.1-.05-.33-.09-.66l0,0,0,.28c0,.14,0,.3-.06.49l-.52,3.12Z" style="fill:#455a64"></path><path d="M187.63,228a.29.29,0,0,1-.08.17,2,2,0,0,1-.27.19l-.29.16a.71.71,0,0,1-.26.12.13.13,0,0,1-.15,0L185,226l0,0v3.43a.59.59,0,0,1-.37.49l-.17.09q-.36.21-.36-.06v-7.2q0-.27.36-.48l.17-.09c.25-.15.37-.13.37.06v3.38h0l1.56-4.4a.48.48,0,0,1,.15-.22,1.08,1.08,0,0,1,.25-.18l.23-.13c.22-.13.34-.14.34,0a.67.67,0,0,1-.07.26l-1.63,4.36,1.77,2.57A.45.45,0,0,1,187.63,228Z" style="fill:#455a64"></path><path d="M188.2,227.56v-7.19a.6.6,0,0,1,.36-.49l.2-.11a.49.49,0,0,1,.22-.08c.06,0,.1,0,.13.12l1.8,3.5a5.11,5.11,0,0,1,.23.61l0,0a3.78,3.78,0,0,1-.07-.74v-4.45a.59.59,0,0,1,.36-.49l.13-.07c.24-.14.36-.12.36.07v7.19a.6.6,0,0,1-.36.49l-.17.09c-.18.11-.29.1-.33,0l-1.86-3.63a2.68,2.68,0,0,1-.21-.57l-.05.05a3.53,3.53,0,0,1,.07.7v4.56a.59.59,0,0,1-.36.49l-.13.07C188.32,227.77,188.2,227.75,188.2,227.56Z" style="fill:#455a64"></path><path d="M193.17,224.86a.35.35,0,0,1-.06-.24v-7a.68.68,0,0,1,.06-.31.41.41,0,0,1,.19-.2l2.39-1.38c.12-.07.18,0,.18.29v.22c0,.26-.06.43-.18.5l-1.74,1V220l1.56-.9c.12-.07.18,0,.18.29v.22c0,.26-.06.43-.18.5L194,221v2.42l1.74-1c.06,0,.11,0,.14,0a.58.58,0,0,1,0,.28V223a.89.89,0,0,1,0,.32.37.37,0,0,1-.14.18l-2.39,1.38C193.27,224.89,193.2,224.9,193.17,224.86Z" style="fill:#455a64"></path><path d="M197.22,222.54a1,1,0,0,1-.59,0,.28.28,0,0,1-.07-.09.26.26,0,0,1,0-.14,2.06,2.06,0,0,1,.08-.52c0-.2.1-.31.17-.35a.15.15,0,0,1,.09,0H197a1.08,1.08,0,0,0,1-.15,1.64,1.64,0,0,0,.63-.65,1.89,1.89,0,0,0,.24-1,.77.77,0,0,0-.21-.64,1.24,1.24,0,0,0-.61-.21,2.41,2.41,0,0,1-.72-.16.87.87,0,0,1-.44-.43,1.88,1.88,0,0,1-.17-.92,3.76,3.76,0,0,1,.47-1.84,3.35,3.35,0,0,1,1.24-1.29,2.21,2.21,0,0,1,.56-.23,1.07,1.07,0,0,1,.47,0c.05,0,.08.06.08.15a2.54,2.54,0,0,1-.08.52.72.72,0,0,1-.18.38l-.15,0a1.32,1.32,0,0,0-.7.2,1.63,1.63,0,0,0-.6.62,1.78,1.78,0,0,0-.23.88,1,1,0,0,0,.11.51.59.59,0,0,0,.29.23,3.19,3.19,0,0,0,.53.11,2.85,2.85,0,0,1,.66.17.86.86,0,0,1,.41.43,2,2,0,0,1,.16.9,4,4,0,0,1-.47,1.9,3.33,3.33,0,0,1-1.27,1.33A2.26,2.26,0,0,1,197.22,222.54Z" style="fill:#455a64"></path><path d="M200.82,220.46a.91.91,0,0,1-.58-.06.2.2,0,0,1-.08-.08.46.46,0,0,1,0-.14,2.15,2.15,0,0,1,.07-.53.61.61,0,0,1,.17-.34.16.16,0,0,1,.1,0h.09a1.11,1.11,0,0,0,1-.15,1.76,1.76,0,0,0,.62-.65,1.9,1.9,0,0,0,.25-.95c0-.33-.07-.54-.21-.64a1.19,1.19,0,0,0-.62-.21,2.76,2.76,0,0,1-.72-.16.91.91,0,0,1-.44-.43,2,2,0,0,1-.17-.92,3.66,3.66,0,0,1,.48-1.84,3.19,3.19,0,0,1,1.23-1.29,2,2,0,0,1,.56-.23.94.94,0,0,1,.47,0c.06,0,.08.06.08.15a2,2,0,0,1-.08.52c-.05.21-.11.34-.17.37s-.07,0-.15,0a1.44,1.44,0,0,0-.7.21,1.56,1.56,0,0,0-.6.62,1.67,1.67,0,0,0-.23.87.94.94,0,0,0,.11.52.55.55,0,0,0,.29.23,3,3,0,0,0,.53.11,2.42,2.42,0,0,1,.66.17.86.86,0,0,1,.41.43,2.13,2.13,0,0,1,.16.9,3.85,3.85,0,0,1-.48,1.89,3.27,3.27,0,0,1-1.26,1.34A2.31,2.31,0,0,1,200.82,220.46Z" style="fill:#455a64"></path><path d="M204.15,218.52a.33.33,0,0,1-.06-.24v-7a.68.68,0,0,1,.06-.31.41.41,0,0,1,.19-.2l2.39-1.38c.12-.07.18,0,.18.29v.22c0,.26-.06.43-.18.5l-1.74,1v2.24l1.56-.9c.12-.07.18,0,.18.29v.22c0,.26-.06.43-.18.5l-1.56.9v2.42l1.74-1c.06,0,.11,0,.14,0a.61.61,0,0,1,0,.28v.22a.89.89,0,0,1,0,.32.37.37,0,0,1-.14.18l-2.39,1.38C204.25,218.55,204.18,218.56,204.15,218.52Z" style="fill:#455a64"></path><path d="M208.2,216.2a1,1,0,0,1-.59,0,.28.28,0,0,1-.07-.09.26.26,0,0,1,0-.14,2.06,2.06,0,0,1,.08-.52c0-.2.1-.31.17-.35a.15.15,0,0,1,.09,0h.09a1.08,1.08,0,0,0,1-.15,1.64,1.64,0,0,0,.63-.65,1.89,1.89,0,0,0,.24-1,.77.77,0,0,0-.21-.64,1.24,1.24,0,0,0-.61-.21,2.41,2.41,0,0,1-.72-.16.83.83,0,0,1-.44-.43,1.88,1.88,0,0,1-.17-.92,3.76,3.76,0,0,1,.47-1.84,3.4,3.4,0,0,1,1.23-1.29,2.43,2.43,0,0,1,.57-.23,1.07,1.07,0,0,1,.47,0s.08.06.08.15a2.45,2.45,0,0,1-.08.52.72.72,0,0,1-.18.38.4.4,0,0,1-.15,0,1.32,1.32,0,0,0-.7.2,1.75,1.75,0,0,0-.83,1.5,1,1,0,0,0,.11.51.55.55,0,0,0,.29.23,3.19,3.19,0,0,0,.53.11,2.85,2.85,0,0,1,.66.17.86.86,0,0,1,.41.43,2,2,0,0,1,.16.91,4,4,0,0,1-.47,1.89,3.33,3.33,0,0,1-1.27,1.33A2.26,2.26,0,0,1,208.2,216.2Z" style="fill:#455a64"></path><path d="M190.08,177.92l-3.61,18.84a8.68,8.68,0,0,1-.52,1.67,2.24,2.24,0,0,1-.95,1.08l-3.4,2c-.42.25-.75.26-1,0a1.82,1.82,0,0,1-.48-1.09l-5.38-32.24a2.43,2.43,0,0,1,0-.42,2.65,2.65,0,0,1,.34-1.26,2.19,2.19,0,0,1,.79-.91l3.11-1.8a1,1,0,0,1,.8-.12c.25.08.42.37.5.88l3.53,21.72,3.11-16.75a7.68,7.68,0,0,1,.4-1.24,2.45,2.45,0,0,1,1.07-1.24l3.45-2c.5-.29.86-.29,1.07,0a2.41,2.41,0,0,1,.4.78L196.39,179l3.52-25.79a3.53,3.53,0,0,1,.51-1.46,2.53,2.53,0,0,1,.8-.8l3.1-1.79a.67.67,0,0,1,.8,0,1,1,0,0,1,.34.87c0,.12,0,.27,0,.48L200,188.92a5.57,5.57,0,0,1-.48,1.65,2.51,2.51,0,0,1-1,1.11l-3.4,2c-.42.24-.74.25-.95,0a2.73,2.73,0,0,1-.52-1.07Z" style="fill:#D1FF0A"></path></g><g id="freepik--Strengths--inject-678"><g id="freepik--strengths--inject-678"><g id="freepik--note--inject-678"><polygon points="120.7 297.43 120.7 328.47 146.42 313.62 146.42 282.58 120.7 297.43" style="opacity:0.1"></polygon><path d="M149.91,315l-18.47,10.66c-2-1-6.69-3-7.93-5.39l-1.77-17.57,25.71-14.85Z" style="fill:#D1FF0A"></path><path d="M123.51,320.27c.62,1.37,5.41,1.82,7.62.83,0,0-.73,3.28.31,4.56,0,0-1.91.06-4.83-1.84S123.51,320.27,123.51,320.27Z" style="fill:#D1FF0A"></path><path d="M123.51,320.27c.62,1.37,5.41,1.82,7.62.83,0,0-.73,3.28.31,4.56,0,0-1.91.06-4.83-1.84S123.51,320.27,123.51,320.27Z" style="opacity:0.15"></path><polygon points="147.45 287.86 121.74 302.7 121.73 297.94 147.45 283.09 147.45 287.86" style="fill:#D1FF0A"></polygon><polygon points="147.45 287.86 121.74 302.7 121.73 297.94 147.45 283.09 147.45 287.86" style="opacity:0.1"></polygon></g><path d="M129,306.76l13.62-7.87c.58-.33,1.05-.09,1.05.53a2.23,2.23,0,0,1-1.05,1.74L129,309c-.57.34-1,.1-1-.53A2.25,2.25,0,0,1,129,306.76Z" style="fill:#455a64"></path><path d="M129,312.35l9.39-5.42c.58-.34,1-.1,1,.53a2.23,2.23,0,0,1-1,1.73L129,314.62c-.57.33-1,.1-1-.53A2.27,2.27,0,0,1,129,312.35Z" style="fill:#455a64"></path><g id="freepik--note--inject-678"><polygon points="98.08 293.51 98.08 324.56 123.8 309.71 123.8 278.66 98.08 293.51" style="opacity:0.1"></polygon><path d="M127.29,311.09l-18.48,10.66c-2-.95-6.68-3-7.93-5.39l-1.77-17.57,25.72-14.85Z" style="fill:#D1FF0A"></path><path d="M127.29,311.09l-18.48,10.66c-2-.95-6.68-3-7.93-5.39l-1.77-17.57,25.72-14.85Z" style="fill:#fff;opacity:0.5"></path><path d="M100.88,316.36c.63,1.37,5.42,1.82,7.63.83,0,0-.73,3.28.3,4.56,0,0-1.9.06-4.83-1.85S100.88,316.36,100.88,316.36Z" style="fill:#D1FF0A"></path><path d="M100.88,316.36c.63,1.37,5.42,1.82,7.63.83,0,0-.73,3.28.3,4.56,0,0-1.9.06-4.83-1.85S100.88,316.36,100.88,316.36Z" style="fill:#fff;opacity:0.5"></path><path d="M100.88,316.36c.63,1.37,5.42,1.82,7.63.83,0,0-.73,3.28.3,4.56,0,0-1.9.06-4.83-1.85S100.88,316.36,100.88,316.36Z" style="fill:#D1FF0A;opacity:0.2"></path><polygon points="124.83 283.94 99.11 298.79 99.11 294.02 124.83 279.18 124.83 283.94" style="fill:#D1FF0A"></polygon><polygon points="124.83 283.94 99.11 298.79 99.11 294.02 124.83 279.18 124.83 283.94" style="fill:#fff;opacity:0.5"></polygon><polygon points="124.83 283.94 99.11 298.79 99.11 294.02 124.83 279.18 124.83 283.94" style="fill:#D1FF0A;opacity:0.2"></polygon></g><path d="M106.54,311l15.91-9.19c.58-.33,1-.09,1,.53a2.23,2.23,0,0,1-1,1.74l-15.91,9.19c-.58.33-1.05.1-1.05-.53A2.27,2.27,0,0,1,106.54,311Z" style="fill:#fafafa"></path><path d="M106.54,305.77l9.39-5.42c.58-.34,1-.1,1,.52a2.23,2.23,0,0,1-1,1.74L106.54,308c-.58.33-1.05.09-1.05-.53A2.23,2.23,0,0,1,106.54,305.77Z" style="fill:#fafafa"></path><path d="M106.54,300.52l9.39-5.42c.58-.34,1-.1,1,.53a2.23,2.23,0,0,1-1,1.73l-9.39,5.43c-.58.33-1.05.09-1.05-.53A2.23,2.23,0,0,1,106.54,300.52Z" style="fill:#fafafa"></path><path d="M118.5,281.86a9.82,9.82,0,0,1,4.46-7.68,3.08,3.08,0,0,1,3.23-.27h0l2,1.18-.82,1.44a.88.88,0,0,1,0,.16,9.81,9.81,0,0,1-4.45,7.68h0L122,286l-2.32-1.34h0A3.15,3.15,0,0,1,118.5,281.86Z" style="fill:#f28f8f"></path><path d="M129.61,278a9.79,9.79,0,0,1-4.45,7.67c-2.46,1.42-4.46.29-4.46-2.53a9.81,9.81,0,0,1,4.45-7.68C127.61,274,129.61,275.17,129.61,278Z" style="fill:#ffa8a7"></path><path id="freepik--gear--inject-678" d="M149,339.1l-1.5.41c-.18.05-.35-.11-.38-.34a6.74,6.74,0,0,0-.23-1,1.8,1.8,0,0,1,.27-1l.84-1.54c.22-.39.3-.81.2-.92l-1.08-1.2c-.1-.12-.38.05-.62.38l-1,1.45c-.24.33-.54.54-.68.5a3,3,0,0,0-.8-.13c-.16,0-.29-.23-.29-.52l0-1.89c0-.28-.14-.45-.34-.37l-1.69.71a1.12,1.12,0,0,0-.45.78l-.33,1.87a1.81,1.81,0,0,1-.5.95,8.3,8.3,0,0,0-.69.64c-.23.24-.52.39-.64.29l-1.1-.85c-.12-.09-.4.13-.63.5l-1.09,1.72c-.23.36-.34.77-.25.92l.82,1.28a1.6,1.6,0,0,1-.15,1l-.27.77a1.75,1.75,0,0,1-.58.91l-1.49.84a1.13,1.13,0,0,0-.42.79l-.21,2.14c0,.32.09.54.27.49l1.5-.41c.18,0,.35.11.39.34a5.29,5.29,0,0,0,.22.95,1.82,1.82,0,0,1-.27,1.05l-.84,1.54c-.21.39-.3.81-.2.92l1.08,1.2c.1.12.38,0,.62-.38l1-1.45c.24-.33.54-.54.68-.5a3,3,0,0,0,.8.13c.16,0,.29.23.29.52l0,1.88c0,.29.14.46.34.38l1.69-.71a1.14,1.14,0,0,0,.45-.78l.33-1.87a1.76,1.76,0,0,1,.51-.95c.23-.2.46-.41.68-.64s.52-.39.64-.3l1.1.86c.12.09.41-.13.64-.5l1.08-1.72c.23-.36.34-.78.25-.92l-.81-1.28a1.51,1.51,0,0,1,.14-1c.1-.26.19-.51.27-.77a1.83,1.83,0,0,1,.58-.92l1.49-.84a1.09,1.09,0,0,0,.42-.78l.21-2.15C149.29,339.27,149.16,339.05,149,339.1Zm-4.19,3.39c-.25,2.53-1.94,5.21-3.77,6s-3.12-.66-2.87-3.18,1.94-5.21,3.77-6S145,340,144.79,342.49Z" style="fill:#D1FF0A"></path><path id="freepik--gear--inject-678" d="M144.19,364.54l-1.94.41c-.23.05-.44-.18-.47-.49a9.52,9.52,0,0,0-.25-1.29,2.39,2.39,0,0,1,.39-1.37l1.14-2c.29-.51.43-1,.3-1.22L142,356.93c-.13-.16-.49,0-.81.45l-1.41,1.83c-.32.42-.71.68-.89.61a3.47,3.47,0,0,0-1-.25c-.2,0-.36-.33-.34-.71l.13-2.51c0-.38-.17-.62-.42-.53l-2.19.79a1.46,1.46,0,0,0-.62,1l-.49,2.46a2.33,2.33,0,0,1-.69,1.22,9.42,9.42,0,0,0-.9.79c-.31.29-.69.46-.84.33l-1.37-1.24c-.15-.13-.52.14-.83.6L127.88,364c-.31.47-.48,1-.37,1.2l1,1.78a2.16,2.16,0,0,1-.22,1.32c-.14.33-.26.66-.38,1a2.32,2.32,0,0,1-.78,1.17l-1.94,1a1.38,1.38,0,0,0-.58,1l-.37,2.83c0,.42.1.72.33.67l1.94-.41c.24-.05.44.18.48.49a8.21,8.21,0,0,0,.24,1.29,2.39,2.39,0,0,1-.39,1.37l-1.14,2c-.29.51-.42,1.05-.29,1.22l1.32,1.69c.13.16.5,0,.81-.45l1.41-1.83c.32-.42.72-.68.89-.61a3.47,3.47,0,0,0,1,.25c.21,0,.36.33.34.71l-.13,2.51c0,.38.17.62.42.53l2.19-.79a1.43,1.43,0,0,0,.62-1l.5-2.46a2.26,2.26,0,0,1,.69-1.22c.3-.24.6-.5.9-.79s.68-.46.83-.33l1.38,1.24c.14.13.51-.14.82-.6l1.47-2.19c.31-.47.47-1,.36-1.2l-1-1.78a2.18,2.18,0,0,1,.23-1.32c.13-.33.26-.66.38-1a2.37,2.37,0,0,1,.77-1.17l2-1a1.4,1.4,0,0,0,.57-1l.37-2.83C144.57,364.79,144.43,364.49,144.19,364.54Zm-5.51,4.12c-.43,3.34-2.7,6.74-5.08,7.6s-4-1.15-3.53-4.49,2.71-6.74,5.09-7.6S139.11,365.32,138.68,368.66Z" style="fill:#D1FF0A"></path><g id="freepik--Bulb--inject-678"><path d="M107.31,386.69l8.56-4.94a1.53,1.53,0,0,0,.65-1.23c0-.47-.29-.69-.65-.49L107.31,385a1.57,1.57,0,0,0-.64,1.24C106.67,386.68,107,386.9,107.31,386.69Z" style="fill:#455a64"></path><path d="M106.67,389.4a1.57,1.57,0,0,1,.64-1.23l8.56-4.94c.36-.21.65,0,.65.49,0,3.62-2.21,7.84-4.93,9.41S106.67,393,106.67,389.4Z" style="fill:#455a64"></path><path d="M112.24,342.83c-3.66,1.88-7.15,5.63-9.79,10.51a32.66,32.66,0,0,0-4.11,15.16c0,6.21,2.51,10.58,6.52,11.44,1.09.22,1.76,1.37,1.76,3,0,.41.26.61.58.43l1.81-1.05v-.09c0-.47,0-.95,0-1.46v-.32c0-3.26.07-6.65-.74-9.52a9.09,9.09,0,0,0-.71-1.84h0c-1.15.94-2.31,1.42-3,1.17s-.72-.79-.54-1.63a3.45,3.45,0,0,1,1.48-2.25,1.89,1.89,0,0,1,2.52.7h0a14.54,14.54,0,0,0,1.9-2.44,17.69,17.69,0,0,0,.88-1.57v0h0a5.14,5.14,0,0,1-.87-4.14,3.76,3.76,0,0,1,1.59-2.43c.76-.43,1.36-.22,1.6.58.31,1.09,0,3.06-.88,5.16v0h0a3.37,3.37,0,0,0,.88.56,3.44,3.44,0,0,0,1.89.26h0l0,0a7.67,7.67,0,0,1,2.52-3.61c.71-.41,1.28-.2,1.48.55a2.91,2.91,0,0,1-.54,2.26,6,6,0,0,1-3,2.22h0a23.51,23.51,0,0,0-.72,2.67,45.76,45.76,0,0,0-.74,10.44c0,.57,0,1.14,0,1.7v.09l1.82-1a1.27,1.27,0,0,0,.41-.47,1.37,1.37,0,0,0,.16-.63,8.93,8.93,0,0,1,1.77-5.06,33.73,33.73,0,0,0,6.51-19.24C124.74,343.83,119.08,339.31,112.24,342.83ZM118,361.38v0c.12-.18.14-.27.13-.35-.08-.28-.28-.23-.44-.14a4.36,4.36,0,0,0-1.28,1.73l0,.07,0,0,.28-.15A3.85,3.85,0,0,0,118,361.38Zm-3.42,3.32v0h0a4.06,4.06,0,0,1-2-.31,4.66,4.66,0,0,1-.93-.55l0,0v0c-.27.53-.59,1.07-.93,1.61a16.34,16.34,0,0,1-2,2.58l0,.05,0,0a11.43,11.43,0,0,1,.67,1.8c.88,3.1.82,6.77.78,10v.86c0,.29,0,.58,0,.86v.09l3-1.71v-.09c0-.58,0-1.14,0-1.72a48,48,0,0,1,.79-10.9A25.31,25.31,0,0,1,114.53,364.7Zm-2.92-3.36a6.42,6.42,0,0,0,.54-3.23c-.09-.28-.26-.34-.56-.17a1.13,1.13,0,0,0-.54.81,3.69,3.69,0,0,0,.52,2.62l0,0Zm-6.51,7.17c0,.1,0,.15.13.2a1.93,1.93,0,0,0,1.3-.36l.27-.17.06,0,0,0a1.14,1.14,0,0,0-1.29-.26A.94.94,0,0,0,105.1,368.51Z" style="fill:#D1FF0A"></path><g style="opacity:0.5"><path d="M112.24,342.83c-3.66,1.88-7.15,5.63-9.79,10.51a32.66,32.66,0,0,0-4.11,15.16c0,6.21,2.51,10.58,6.52,11.44,1.09.22,1.76,1.37,1.76,3,0,.41.26.61.58.43l1.81-1.05v-.09c0-.47,0-.95,0-1.46v-.32c0-3.26.07-6.65-.74-9.52a9.09,9.09,0,0,0-.71-1.84h0c-1.15.94-2.31,1.42-3,1.17s-.72-.79-.54-1.63a3.45,3.45,0,0,1,1.48-2.25,1.89,1.89,0,0,1,2.52.7h0a14.54,14.54,0,0,0,1.9-2.44,17.69,17.69,0,0,0,.88-1.57v0h0a5.14,5.14,0,0,1-.87-4.14,3.76,3.76,0,0,1,1.59-2.43c.76-.43,1.36-.22,1.6.58.31,1.09,0,3.06-.88,5.16v0h0a3.37,3.37,0,0,0,.88.56,3.44,3.44,0,0,0,1.89.26h0l0,0a7.67,7.67,0,0,1,2.52-3.61c.71-.41,1.28-.2,1.48.55a2.91,2.91,0,0,1-.54,2.26,6,6,0,0,1-3,2.22h0a23.51,23.51,0,0,0-.72,2.67,45.76,45.76,0,0,0-.74,10.44c0,.57,0,1.14,0,1.7v.09l1.82-1a1.27,1.27,0,0,0,.41-.47,1.37,1.37,0,0,0,.16-.63,8.93,8.93,0,0,1,1.77-5.06,33.73,33.73,0,0,0,6.51-19.24C124.74,343.83,119.08,339.31,112.24,342.83ZM118,361.38v0c.12-.18.14-.27.13-.35-.08-.28-.28-.23-.44-.14a4.36,4.36,0,0,0-1.28,1.73l0,.07,0,0,.28-.15A3.85,3.85,0,0,0,118,361.38Zm-3.42,3.32v0h0a4.06,4.06,0,0,1-2-.31,4.66,4.66,0,0,1-.93-.55l0,0v0c-.27.53-.59,1.07-.93,1.61a16.34,16.34,0,0,1-2,2.58l0,.05,0,0a11.43,11.43,0,0,1,.67,1.8c.88,3.1.82,6.77.78,10v.86c0,.29,0,.58,0,.86v.09l3-1.71v-.09c0-.58,0-1.14,0-1.72a48,48,0,0,1,.79-10.9A25.31,25.31,0,0,1,114.53,364.7Zm-2.92-3.36a6.42,6.42,0,0,0,.54-3.23c-.09-.28-.26-.34-.56-.17a1.13,1.13,0,0,0-.54.81,3.69,3.69,0,0,0,.52,2.62l0,0Zm-6.51,7.17c0,.1,0,.15.13.2a1.93,1.93,0,0,0,1.3-.36l.27-.17.06,0,0,0a1.14,1.14,0,0,0-1.29-.26A.94.94,0,0,0,105.1,368.51Z" style="fill:#fff"></path></g></g></g><path d="M106,275.18a1,1,0,0,1-.58-.05.32.32,0,0,1-.08-.09.46.46,0,0,1,0-.14,2,2,0,0,1,.07-.52c0-.2.11-.31.18-.35s.05,0,.09,0h.09a1.11,1.11,0,0,0,1-.15,1.76,1.76,0,0,0,.62-.65,1.9,1.9,0,0,0,.25-1c0-.33-.07-.54-.21-.64a1.19,1.19,0,0,0-.62-.21,3,3,0,0,1-.72-.16.91.91,0,0,1-.44-.43,2,2,0,0,1-.17-.92,3.66,3.66,0,0,1,.48-1.84,3.26,3.26,0,0,1,1.23-1.29,2,2,0,0,1,.56-.23.94.94,0,0,1,.47,0c.06,0,.08.06.08.15a2,2,0,0,1-.08.52c0,.21-.11.34-.17.37s-.07,0-.15,0a1.44,1.44,0,0,0-.7.21,1.56,1.56,0,0,0-.6.62,1.67,1.67,0,0,0-.23.87.94.94,0,0,0,.11.52.55.55,0,0,0,.29.23,3,3,0,0,0,.53.11,2.42,2.42,0,0,1,.66.17.86.86,0,0,1,.41.43,2.13,2.13,0,0,1,.16.9,3.91,3.91,0,0,1-.48,1.9,3.31,3.31,0,0,1-1.26,1.33A2.31,2.31,0,0,1,106,275.18Z" style="fill:#455a64"></path><path d="M110.13,272.63v-6.44l-1.11.65c-.06,0-.11,0-.13,0a.61.61,0,0,1,0-.28v-.22a1,1,0,0,1,0-.33.31.31,0,0,1,.13-.17l3.12-1.8c.06,0,.11,0,.14,0a.74.74,0,0,1,0,.28v.22a1.32,1.32,0,0,1,0,.32.37.37,0,0,1-.14.18l-1.11.63v6.44q0,.27-.36.48l-.17.1C110.25,272.83,110.13,272.81,110.13,272.63Z" style="fill:#455a64"></path><path d="M113,271v-7.09a.54.54,0,0,1,.25-.51l1.28-.73c.53-.31.93-.39,1.21-.23s.41.59.41,1.3a3.57,3.57,0,0,1-.77,2.3v.05c.12,0,.22.1.31.26a3.9,3.9,0,0,1,.26.71l.51,1.85a.25.25,0,0,1,0,.07.17.17,0,0,1,0,.07c0,.14-.13.28-.38.43l-.18.1a.48.48,0,0,1-.24.08.09.09,0,0,1-.12-.08l-.48-1.87a1,1,0,0,0-.29-.54c-.11-.06-.26,0-.47.09l-.43.25v3c0,.18-.13.34-.37.49l-.16.09C113.15,271.16,113,271.14,113,271Zm1.62-5a1.26,1.26,0,0,0,.45-.62,2.72,2.72,0,0,0,.18-1,1.16,1.16,0,0,0-.18-.78c-.12-.12-.29-.12-.49,0l-.69.4v2.41Z" style="fill:#455a64"></path><path d="M117.34,268.64a.36.36,0,0,1-.06-.25v-7a.71.71,0,0,1,.06-.31.41.41,0,0,1,.19-.2l2.39-1.38c.12-.07.18,0,.18.29V260c0,.27-.06.43-.18.5l-1.74,1v2.24l1.56-.9c.12-.07.18,0,.18.29v.22q0,.41-.18.51l-1.56.9v2.42l1.74-1c.06,0,.11,0,.14,0a.61.61,0,0,1,0,.28v.22a1,1,0,0,1,0,.33.34.34,0,0,1-.14.17l-2.39,1.38C117.44,268.66,117.37,268.67,117.34,268.64Z" style="fill:#455a64"></path><path d="M121,266.35v-7.19a.59.59,0,0,1,.36-.49l.2-.11a.46.46,0,0,1,.21-.08c.06,0,.11,0,.14.12l1.79,3.49a4.43,4.43,0,0,1,.23.62l0,0a4.49,4.49,0,0,1-.06-.73v-4.45a.59.59,0,0,1,.36-.49l.12-.07c.25-.14.37-.12.37.06v7.2c0,.18-.12.34-.37.48l-.16.1c-.18.1-.3.1-.34,0L122,261.12a2.92,2.92,0,0,1-.21-.57l0,.05a4.37,4.37,0,0,1,.07.7v4.56a.61.61,0,0,1-.37.49l-.12.07C121.13,266.56,121,266.53,121,266.35Z" style="fill:#455a64"></path><path d="M129.36,257.86V261a1.36,1.36,0,0,1-.48.89,5.08,5.08,0,0,1-1,.81c-.71.41-1.24.4-1.6,0a4.5,4.5,0,0,1-.53-2.62,8.44,8.44,0,0,1,.55-3.31,3.92,3.92,0,0,1,1.64-1.93,2.46,2.46,0,0,1,.64-.26,1.17,1.17,0,0,1,.52,0q.21.06.21.21a2,2,0,0,1-.13.53c-.09.24-.16.37-.23.41a.34.34,0,0,1-.17,0,1.36,1.36,0,0,0-.35,0,1.44,1.44,0,0,0-.46.18,2.21,2.21,0,0,0-1,1.29,7.32,7.32,0,0,0-.31,2.31c0,1.94.41,2.68,1.23,2.21a3.49,3.49,0,0,0,.62-.47V259l-.62.36c-.13.07-.19,0-.19-.29v-.22c0-.27.06-.43.19-.5l1.26-.73C129.27,257.54,129.36,257.61,129.36,257.86Z" style="fill:#455a64"></path><path d="M131.3,260.41V254l-1.11.64c-.06,0-.11,0-.13,0a.61.61,0,0,1,0-.28v-.22a1,1,0,0,1,0-.33.28.28,0,0,1,.13-.17l3.12-1.8c.06,0,.11,0,.14,0a.68.68,0,0,1,0,.27v.22a1.34,1.34,0,0,1,0,.33.3.3,0,0,1-.14.17l-1.11.64v6.44q0,.27-.36.48l-.18.1Q131.3,260.68,131.3,260.41Z" style="fill:#455a64"></path><path d="M134.21,258.73v-7.2c0-.18.12-.34.37-.48l.19-.11c.23-.14.34-.11.34.07v3l2-1.12v-3q0-.27.36-.48l.18-.1q.36-.21.36.06v7.2q0,.27-.36.48l-.18.1q-.36.21-.36-.06V253.9l-2,1.13v3.18a.55.55,0,0,1-.34.47l-.19.11C134.33,258.93,134.21,258.91,134.21,258.73Z" style="fill:#455a64"></path><path d="M139.51,255.85a1,1,0,0,1-.58,0,.32.32,0,0,1-.08-.09.28.28,0,0,1,0-.14,2,2,0,0,1,.07-.52.61.61,0,0,1,.17-.35.16.16,0,0,1,.1,0h.09a1.08,1.08,0,0,0,1-.15,1.69,1.69,0,0,0,.62-.65,1.9,1.9,0,0,0,.25-.95.77.77,0,0,0-.21-.64,1.33,1.33,0,0,0-.62-.21,2.41,2.41,0,0,1-.72-.16.87.87,0,0,1-.44-.43,2,2,0,0,1-.17-.92,3.66,3.66,0,0,1,.48-1.84,3.26,3.26,0,0,1,1.23-1.29,2.37,2.37,0,0,1,.56-.23,1.07,1.07,0,0,1,.47,0c.06,0,.08.06.08.15a1.94,1.94,0,0,1-.08.52c-.06.22-.11.34-.17.38l-.15,0a1.32,1.32,0,0,0-.7.2,1.65,1.65,0,0,0-.61.62,1.78,1.78,0,0,0-.23.88.92.92,0,0,0,.12.51.55.55,0,0,0,.29.23,3,3,0,0,0,.53.11,2.85,2.85,0,0,1,.66.17.91.91,0,0,1,.41.43,2.13,2.13,0,0,1,.16.9,3.91,3.91,0,0,1-.48,1.9,3.33,3.33,0,0,1-1.27,1.33A2.18,2.18,0,0,1,139.51,255.85Z" style="fill:#455a64"></path><path d="M123.41,196.75a13.07,13.07,0,0,1,5-1.85,6.56,6.56,0,0,1,3.57.46,4.68,4.68,0,0,1,2.16,2.08,7,7,0,0,1,.82,3,2.23,2.23,0,0,1-.31,1.28,2.38,2.38,0,0,1-.82.89l-2.94,1.7c-.48.27-.83.36-1.07.25a1.47,1.47,0,0,1-.65-.6,2.92,2.92,0,0,0-1.91-1.34c-.86-.19-2.13.19-3.81,1.16a12.86,12.86,0,0,0-2.07,1.51,12.23,12.23,0,0,0-1.73,1.89,9.43,9.43,0,0,0-1.15,2.1,5.91,5.91,0,0,0-.42,2.15,3.31,3.31,0,0,0,.4,1.86,1.59,1.59,0,0,0,1.34.63,9.1,9.1,0,0,0,2.5-.35c1-.26,2.32-.62,3.86-1.06a19.11,19.11,0,0,1,4.35-.8,5.22,5.22,0,0,1,3,.63,4.23,4.23,0,0,1,1.73,2.17,10.53,10.53,0,0,1,.56,3.76,17,17,0,0,1-.84,5.16,21.18,21.18,0,0,1-2.39,5.08,26.05,26.05,0,0,1-3.82,4.65,25.71,25.71,0,0,1-5.09,3.83,16.15,16.15,0,0,1-4.49,1.84,7.74,7.74,0,0,1-3.8,0,4.77,4.77,0,0,1-2.67-1.91,7.17,7.17,0,0,1-1.13-3.82,2.23,2.23,0,0,1,.31-1.28,2.38,2.38,0,0,1,.82-.89l2.94-1.7a1.51,1.51,0,0,1,1.09-.29,1.1,1.1,0,0,1,.63.64,6.11,6.11,0,0,0,.72,1.05,2,2,0,0,0,1.13.63,4.21,4.21,0,0,0,1.79-.11,10.62,10.62,0,0,0,2.66-1.17,20.58,20.58,0,0,0,2.44-1.66,13.21,13.21,0,0,0,2.06-2,11.1,11.1,0,0,0,1.43-2.28,5.88,5.88,0,0,0,.54-2.47,2,2,0,0,0-.59-1.68,2.44,2.44,0,0,0-1.78-.31,17.22,17.22,0,0,0-3,.64c-1.18.34-2.54.7-4.08,1.07a14.4,14.4,0,0,1-3.67.52,4.41,4.41,0,0,1-2.61-.76,4.48,4.48,0,0,1-1.53-2.28,13.18,13.18,0,0,1-.5-4.05,16.79,16.79,0,0,1,.84-5.14,22.21,22.21,0,0,1,2.31-5,25.15,25.15,0,0,1,3.5-4.4A21.28,21.28,0,0,1,123.41,196.75Z" style="fill:#D1FF0A"></path></g><g id="freepik--Marker--inject-678"><g id="freepik--marker--inject-678"><path d="M363.18,347.38a22.25,22.25,0,0,0-10.08-17.46c-2.75-1.59-5.24-1.76-7.06-.74h0l-.06,0h0L217,403.4l14.33,24.65L360.23,353.9h0C362.06,352.84,363.18,350.59,363.18,347.38Z" style="fill:#D1FF0A"></path><path d="M363.18,347.38a22.25,22.25,0,0,0-10.08-17.46c-2.75-1.59-5.24-1.76-7.06-.74h0l-.06,0h0L217,403.4l14.33,24.65L360.23,353.9h0C362.06,352.84,363.18,350.59,363.18,347.38Z" style="fill:#fff;opacity:0.7000000000000001"></path><path d="M360.23,337.44a20.61,20.61,0,0,0-7.13-7.52c-2.75-1.59-5.24-1.76-7.06-.74h0l-.06,0h0L217,403.4l7.17,12.33,136-78.27Z" style="fill:#D1FF0A"></path><path d="M360.23,337.44a20.61,20.61,0,0,0-7.13-7.52c-2.75-1.59-5.24-1.76-7.06-.74h0l-.06,0h0L217,403.4l7.17,12.33,136-78.27Z" style="fill:#fff;opacity:0.8"></path><path d="M221.46,411l135.52-78a17.61,17.61,0,0,0-3.88-3.13,8.46,8.46,0,0,0-.84-.44L218.72,406.3Z" style="fill:#fff;opacity:0.30000000000000004"></path><path d="M224.19,404.09a22.25,22.25,0,0,1,10.08,17.46c0,6.43-4.51,9-10.08,5.82a22.32,22.32,0,0,1-10.08-17.46C214.11,403.48,218.62,400.87,224.19,404.09Z" style="fill:#e0e0e0"></path><path d="M352.18,358.55c1.82-1.06,2.95-3.32,2.95-6.53a22.32,22.32,0,0,0-10.08-17.46c-2.76-1.58-5.25-1.75-7.07-.73l2.87-1.67c1.82-1,4.31-.85,7.06.74A22.25,22.25,0,0,1,358,350.36c0,3.21-1.12,5.46-2.94,6.52Z" style="fill:#D1FF0A"></path><path d="M231.36,428.05,360.23,353.9h0c1.82-1.06,2.94-3.31,2.94-6.52a16.2,16.2,0,0,0-.42-3.54l-135,78Z" style="opacity:0.05"></path><path d="M235.09,422c0-6.95-4.88-15.4-10.9-18.88-3-1.74-5.73-1.9-7.71-.76l-44.25,25.55,15.55,26.62,44.11-25.47C233.87,428,235.09,425.5,235.09,422Z" style="fill:#455a64"></path><path d="M228.67,406.85l-44.19,25.51a18.75,18.75,0,0,0-4.48-3.71l44.19-25.51A18.91,18.91,0,0,1,228.67,406.85Z" style="fill:#fff;opacity:0.15"></path><path d="M235.09,422c0,3.49-1.22,5.93-3.2,7.07l-44.11,25.46h0c1.93-1.14,3.13-3.57,3.13-7a20.93,20.93,0,0,0-2-8.31l44.19-25.52A20.8,20.8,0,0,1,235.09,422Z" style="fill:#37474f"></path><path d="M180,428.65c6,3.48,10.9,11.93,10.9,18.89s-4.88,9.77-10.9,6.29S169.1,441.9,169.1,435,174,425.18,180,428.65Z" style="fill:#37474f"></path><path d="M180,453.83c6,3.48,10.9.66,10.9-6.29a22.33,22.33,0,0,0-3.19-10.75c2,4.45,3.19,11.84.59,15.25S182.37,454.43,180,453.83Z" style="fill:#263238"></path><path d="M180,433.12c-3.88-2.22-7-.41-7,4.07a15.54,15.54,0,0,0,7,12.17c3.88,2.24,7,.42,7-4.07A15.54,15.54,0,0,0,180,433.12Zm0,13.8a10.87,10.87,0,0,1-4.92-8.52c0-3.13,2.21-4.4,4.92-2.83a10.87,10.87,0,0,1,4.93,8.52C184.93,447.23,182.72,448.49,180,446.92Z" style="fill:#263238"></path><polygon points="199.08 436.52 196.35 438.1 199.08 439.66 201.81 438.1 199.08 436.52" style="fill:#455a64"></polygon><path d="M239.53,420.65l-2.72-1.58a2.46,2.46,0,0,0-2.46.23h0l-35.25,20.35v9.45l35.25-20.35a7.72,7.72,0,0,0,3.49-6v-.35l.31.2Z" style="fill:#455a64"></path><path d="M240.54,422.9v1.4a7.71,7.71,0,0,1-3.49,6l-35.24,20.35v-9.45l35.24-20.35h0C239,419.79,240.54,420.69,240.54,422.9Z" style="fill:#37474f"></path><polygon points="196.35 447.54 196.35 438.1 201.8 441.25 201.8 450.69 196.35 447.54" style="fill:#263238"></polygon></g></g><g id="freepik--Character--inject-678"><g id="freepik--character--inject-678"><g id="freepik--Bottom--inject-678"><path d="M456.05,403.05c-.92-12.59.5-22.23-.55-41.88h0c-.09-5-.27-10.43-.61-15.22-1.14-16.13-3.63-21.64-3.86-24.76,0,0-.42-25.09-1.47-60.37-.5-16.6-5.31-21.63-9.15-30.44H394.72c-5.1,21.74-6.56,69.15-6.4,91.56.07,11.42,4.69,72.53,4.78,73.94.32,5-.11,7-2.06,9.05-4.1,4.39-10,8.58-15.16,12.4.74,2,6.91,1.89,10,.4a77,77,0,0,0,11.39-7.26c4.21-3.12,9.6-5.62,9.67-10.37a5,5,0,0,1,.14-.85c.08-2.77,6.54-43.65,7.08-53.13.46-8.16-.53-22-.53-22l5.26-34.55s3.25,20.42,6.53,34.36c2.67,11.35,7.08,30.72,10.08,44.69h0c2.89,16.09,7.13,27.55,7.87,35.6.22,1.92,2.39,20.8,3.29,25.13s10.33,4.43,10.93-3C458,421.4,456.22,405.42,456.05,403.05Z" style="fill:#b16668"></path><path d="M418.85,289.57,415,264.65s-14.87-1.77-20.28-7c0,0,6.82,9.62,16.91,11.19l4.25,20.66-2.25,34.28Z" style="fill:#9a4a4d"></path><path d="M367.15,422.35c-.26,0-.68,2.87.72,4.11,1.62,1.42,6.4,3.79,12.75,3s9.8-2.68,12.36-4.78,6.15-5.05,9-5.65c2.67-.56,5.58-1.74,6.44-2.55s.78-4.48.78-4.48Z" style="fill:#263238"></path><path d="M407.17,397.91s.48,0,.64.87c.18,1,.36,4,.76,5.61a29.55,29.55,0,0,1,.53,8.91c-.37,1.87-4.73,3.13-7.52,4.16a35.44,35.44,0,0,0-9.05,5.58,26.16,26.16,0,0,1-13.44,4.84c-6.31,0-10.38-1.73-11.62-4-1.53-2.83-.29-4.44,7-7.72,1.38-.62,6.23-3.42,7.89-4.44a37.57,37.57,0,0,0,5-3.62,25.5,25.5,0,0,0,2.24-2.17,9.84,9.84,0,0,0,1.86-2.32,6.5,6.5,0,0,0,.22-.62,9.91,9.91,0,0,0,.49-1.69c.12-.6.21-1.48.79-1.84a4.84,4.84,0,0,1,2.59-.27,20,20,0,0,1,2.79.42c1.07.25,2.3.36,2.92,1.37a5.28,5.28,0,0,1,.57,2.63c0,.43,0,.85,0,1.28,0,.18-.08.5.18.43s.51-.7.61-.91c.2-.48.34-1,.56-1.45a7.79,7.79,0,0,1,.92-1.52,7.49,7.49,0,0,1,1.16-1.16,12.05,12.05,0,0,0,1.25-.79A2.86,2.86,0,0,0,407.17,397.91Z" style="fill:#37474f"></path><path d="M373.3,416.69c9.13.73,11.94,6.4,12.29,9.9a21.85,21.85,0,0,1-6.5,1.29c-6.31,0-10.64-1.73-11.88-4C365.77,421.2,366.79,419.08,373.3,416.69Z" style="fill:#fafafa"></path><path d="M387,416.93a.42.42,0,0,0,.28-.1.43.43,0,0,0,.07-.62,10.68,10.68,0,0,0-8.22-3.35.45.45,0,0,0,.08.89,10,10,0,0,1,7.45,3A.42.42,0,0,0,387,416.93Z" style="fill:#f0f0f0"></path><path d="M391,414.68a.42.42,0,0,0,.28-.1.44.44,0,0,0,.07-.63,10.71,10.71,0,0,0-8.22-3.34.45.45,0,0,0,.08.89,10,10,0,0,1,7.45,3A.42.42,0,0,0,391,414.68Z" style="fill:#f0f0f0"></path><path d="M394.62,412.1a.46.46,0,0,0,.29-.1.44.44,0,0,0,.07-.62,10.74,10.74,0,0,0-8.23-3.35.45.45,0,0,0-.4.49.44.44,0,0,0,.49.4,10,10,0,0,1,7.44,3A.44.44,0,0,0,394.62,412.1Z" style="fill:#f0f0f0"></path><path d="M398.22,409.52a.47.47,0,0,0,.28-.09.45.45,0,0,0,.08-.63c-1.72-2.23-5.66-3.73-9-3.4a.45.45,0,0,0-.41.49.46.46,0,0,0,.49.4c3-.29,6.66,1.08,8.2,3.06A.42.42,0,0,0,398.22,409.52Z" style="fill:#f0f0f0"></path><path d="M443.66,432.72c.26,4.3.92,7.16,2.45,9.69s4.42,3.32,7.34,2.58,6.66-2.72,7.5-6.44,1.32-6.26.66-10.26Z" style="fill:#263238"></path><path d="M456,401.51c1.2.09,1.55,5.88,2.25,11.67.74,6.21,2.6,8.78,3.26,13.87.76,5.82-.2,8.42-2.24,11.94s-9.25,7-12.81,1.93c-2.9-4.11-3-8.66-2.75-14.47a131.16,131.16,0,0,0-.39-14.72c-.24-4.36-1.2-8.75-.15-9.23.08.64.15,1.45.24,2.08a10.14,10.14,0,0,0,.39,2.32c.12.32.39.66.5.13a3.56,3.56,0,0,0,0-1.08c-.18-1.6.63-1.73,1.07-1.86a52.36,52.36,0,0,1,5.58-.79c.92-.06,4.09-.2,4.51.32a3.8,3.8,0,0,1,.4,1.69c.1.87.31,1.51.33,1.24.06-.63-.06-2.26-.08-2.65s-.08-.89-.08-1.27S456,401.88,456,401.51Z" style="fill:#37474f"></path><path d="M461.79,430.42a14.44,14.44,0,0,1-2.25,8.84c-2,3.52-9.83,7-13.39,1.94-1.77-2.5-2.24-5.46-2.48-8.49C445.8,428.83,458.43,427.12,461.79,430.42Z" style="fill:#fafafa"></path><path d="M446.29,426.39l.15,0c.05,0,5.62-2.33,11-1.08a.45.45,0,0,0,.54-.33.46.46,0,0,0-.34-.54,21,21,0,0,0-11.63,1.14.45.45,0,0,0,.24.85Z" style="fill:#f0f0f0"></path><path d="M457.21,420.94a.45.45,0,0,0,.1-.87c-5.4-1.83-11.39.92-11.61,1a.44.44,0,0,0-.19.6.46.46,0,0,0,.6.19c.05,0,5.89-2.69,10.91-1A.41.41,0,0,0,457.21,420.94Z" style="fill:#f0f0f0"></path><path d="M457,416.85a.46.46,0,0,0,.38-.29.45.45,0,0,0-.27-.57c-5.94-2.13-11.62.87-11.83,1a.43.43,0,0,0-.15.61.44.44,0,0,0,.61.15c.05,0,5.54-2.9,11.06-.92A.47.47,0,0,0,457,416.85Z" style="fill:#f0f0f0"></path><path d="M456.73,412.83a.46.46,0,0,0,.37-.29.45.45,0,0,0-.26-.58c-5.56-2.08-11.68,1-11.91,1.13a.44.44,0,1,0,.44.77c.06,0,6-3,11.15-1.06Z" style="fill:#ebebeb"></path><path d="M441.63,230.53c5.41,9.87,9.43,17.93,10,47.28s.45,37.57.57,41.1,2.17,9.87,4,27.3-.33,38.2-.33,38.2-1.25,2.81-7.91,3.4c-6.15.55-9.2-1.75-9.2-1.75s-8.43-33.95-10.76-44.45-9.11-45-9.11-45l-4,28s1.88,9.62,0,24.91-5.18,30.94-5.18,30.94a27.75,27.75,0,0,1-9.44,1.54,16,16,0,0,1-8.29-2.16S386.7,334.34,386.7,317s1.46-60.64,6.91-86.29Z" style="fill:#37474f"></path><path d="M418.85,296.59l-5.49-33.32s-11.58-.82-18-7.56c2.61,7.16,12.12,12.17,16.29,13.17l4.91,27.34-1.71,28.37Z" style="fill:#263238"></path><path d="M430.5,235.41a41.67,41.67,0,0,1,3.76,8,76.94,76.94,0,0,1,2.5,8.43,84.47,84.47,0,0,1,1.59,8.63,55.87,55.87,0,0,1,.58,8.77c-.7-2.85-1.35-5.68-2-8.51s-1.28-5.66-2-8.47-1.36-5.62-2.08-8.42S431.37,238.21,430.5,235.41Z" style="fill:#263238"></path><path d="M434.33,236.47a31.51,31.51,0,0,1,4,4.45,41.71,41.71,0,0,1,3.22,5,38.61,38.61,0,0,1,2.45,5.45,23.56,23.56,0,0,1,1.34,5.82l-2.66-5.25c-.91-1.72-1.8-3.44-2.75-5.13s-1.87-3.4-2.8-5.11S435.19,238.28,434.33,236.47Z" style="fill:#263238"></path><path d="M428,271.53c1.26,9.08,2.4,18.18,3.54,27.27s2.37,18.15,4,27.13,3.43,18,5,27,3.13,18.07,4.52,27.13q-3.13-13.4-5.93-26.85c-1.89-9-3.66-17.94-5.43-27S431,308.09,430.08,299,428.51,280.68,428,271.53Z" style="fill:#263238"></path><path d="M395.34,271.53l-1.5,23.9c-.22,4-.47,8-.66,11.94s-.41,8-.35,11.9.33,8,.53,11.92l.6,12q.62,12,1,23.93-1.41-11.9-2.39-23.84c-.65-8-1.26-15.9-1.53-23.94,0-8.08.71-16,1.42-24S394.11,279.43,395.34,271.53Z" style="fill:#263238"></path></g><g id="freepik--Top--inject-678"><path id="freepik--Hair--inject-678" d="M436.6,137c-.84-7.44-15.94-14-27.89-8.59S395.25,144,397.32,149.74c1.45,4,1.31,7.84-1.11,7.85.75,2.27,4,1.76,4.9.9.82,1.64,26.42,14.43,27.69,13.49,4.23-3.12,9.33-6.87,11.61-11.61a25.17,25.17,0,0,0,2.22-15.55,10.31,10.31,0,0,0-3-5.24A30.24,30.24,0,0,0,436.6,137Z" style="fill:#263238"></path><g id="freepik--Arm--inject-678"><path d="M406.56,179.72c-9.68,1.67-11.12,3.06-16.29,8.87-6.45,7.24-7.94,8.94-17.38,18.52l-29.39-9.36v15.78s20.67,9.8,27.58,12.13c5.18,1.75,8.11-.65,12.17-4.4,6.23-5.74,18.82-17.59,18.82-17.59Z" style="fill:#b16668"></path><g id="freepik--Tablet--inject-678"><path d="M335.76,177.16h0l1.66-.81h0a1.6,1.6,0,0,1,1.43.22l37,21.47a5.61,5.61,0,0,1,2.49,3.95l2.51,33.27a1.44,1.44,0,0,1-.61,1.51h0l-1.72.83v0a1.58,1.58,0,0,1-1.46-.2l-37-21.48a5.58,5.58,0,0,1-2.49-3.95c-.49-6.54-2-26.73-2.51-33.27C335,177.88,335.28,177.35,335.76,177.16Z" style="fill:#455a64"></path><path d="M375.56,200.13a5.55,5.55,0,0,1,1.11,2.69l2.52,33.26a1.5,1.5,0,0,1-.55,1.49l1.61-.78v0c.43-.21.67-.72.61-1.5L378.34,202a5.46,5.46,0,0,0-1-2.54Z" style="fill:#263238"></path><path d="M379.18,236.09l-2.51-33.27a5.58,5.58,0,0,0-2.49-4l-37-21.47c-1.27-.73-2.2-.14-2.09,1.31.49,6.54,2,26.73,2.51,33.27a5.58,5.58,0,0,0,2.49,3.95l37,21.48C378.36,238.13,379.29,237.54,379.18,236.09Z" style="fill:#37474f"></path><path d="M375,209.2l-.47-6.22a1,1,0,0,0-.46-.74l-2.55-1.48c-.24-.13-.42,0-.4.25.1,1.22.38,5,.47,6.23a1.08,1.08,0,0,0,.47.74l2.55,1.47C374.81,209.59,375,209.48,375,209.2Z" style="fill:#455a64"></path><path d="M374,204.31a2.65,2.65,0,0,0-1.2-1.84c-.61-.36-1.07-.1-1,.56a2.69,2.69,0,0,0,1.2,1.84C373.59,205.22,374.05,205,374,204.31Z" style="fill:#263238"></path><path d="M374.2,207.44a2.64,2.64,0,0,0-1.2-1.84c-.61-.35-1.07-.1-1,.56a2.63,2.63,0,0,0,1.19,1.84C373.79,208.35,374.25,208.1,374.2,207.44Z" style="fill:#263238"></path><path d="M333.8,198c-1-2.16-.83-2.39.1-3.22a6.08,6.08,0,0,1,5.34-1.56c1.66.37,3.36.66,4.14,1.27s-.31,2.28-2.58,2.35c-3.58.11-3.73,1.05-3.73,1.05a44.29,44.29,0,0,1,4.57.07,32.61,32.61,0,0,1,4.89,1.72c1.4.51,1.33,2.43-1.24,2.6l2.57.93c1.79.66,2.24,1.77.56,2.64a2.77,2.77,0,0,1-1.8.3s2,.38,1.89,1.05c-.24,1.9-1.56,2.16-5.78,2.56-4,.38-5.19,2.28-4.71,3.84,0,0-1.36-1.19-2.55-2.4-.87-.88-1.56-1.82-.81-3.3,0,0-2.19-.37-2.06-1.74a7.09,7.09,0,0,1,1.07-2.79,2.42,2.42,0,0,1-.77-2.46,3.92,3.92,0,0,1,1.25-2.21Z" style="fill:#b16668"></path><path d="M345.29,202.23a12.93,12.93,0,0,0-2.36-.72,7.65,7.65,0,0,0-2.47.3,28.18,28.18,0,0,0-4.63,1.44,28.32,28.32,0,0,0,4.78-.75,12.25,12.25,0,0,1,2.29-.43C343.64,202.09,344.48,202.23,345.29,202.23Z" style="fill:#9a4a4d"></path><path d="M346.62,206.1a5.37,5.37,0,0,0-2.59-.57,13.5,13.5,0,0,0-2.63.31,25.17,25.17,0,0,0-5,1.55,51,51,0,0,0,5.14-.85A13.85,13.85,0,0,1,346.62,206.1Z" style="fill:#9a4a4d"></path></g></g><path id="freepik--Chest--inject-678" d="M446.53,236.73c-.81-3.4-2.2-9.2-2.46-11.18-1.55-11.49.49-17.33,1.25-22.36,1.63-10.94-1.5-20.12-4.05-22.28,0,0-2.9-.71-5.33-1.15-1.93-.35-3.41-.57-5.95-1.19-6.32-1.53-13.23,0-15.64.22a25.75,25.75,0,0,0-4.94.35c-1.7.4-5.67,1.08-5.67,1.09a35.85,35.85,0,0,0-7.53,9.68c-2.78,5-4,9.22-4.5,19-.68,13.53-1,19.74-1.48,27.52C401.44,243.36,432.06,245.17,446.53,236.73Z" style="fill:#f0f0f0"></path><g id="freepik--Head--inject-678"><path d="M430,175.82c0-1.79.35-10.79.35-10.79.07.67,3.32,2.53,6.27-.91s3.18-7.12,1.45-9.49c-1.92-2.61-6.22-2.5-8,1.72-1.3,0-3.37-.24-2.7-6.94,0-8.07-7.84-14.77-14.45-9.19-2.56-4.53-8-2.74-10,1.65-1.11,2.75-1.48,3.7-.94,8.92.09.87-1,2.74-.9,6.65.23,9.68,2.47,13.09,5.61,14.52,1.88.86,3.76,1.1,7.34.83l-.2,3h0c-.08,1.5.05,2.15-1.42,2.62-1,.32-2.94.73-2.94.73s-4.26,4,5,5.3c13.87,2,21.5-4.68,21.5-4.68s-.94-.16-3.31-.6S430,177.62,430,175.82Z" style="fill:#b16668"></path><path d="M417.59,162l-5,1.55a2.59,2.59,0,0,0,3.25,1.83A2.74,2.74,0,0,0,417.59,162Z" style="fill:#9a4a4d"></path><path d="M417.26,163.14a2.91,2.91,0,0,0-2.91,2.24,2.51,2.51,0,0,0,1.46,0,2.7,2.7,0,0,0,1.84-2.17A2.44,2.44,0,0,0,417.26,163.14Z" style="fill:#ffa8a7"></path><path d="M403.57,147.7l3.6-1.86a1.94,1.94,0,0,0-2.67-.91A2.11,2.11,0,0,0,403.57,147.7Z" style="fill:#263238"></path><path d="M421.67,148.38l-3.48-2.17a2,2,0,0,1,2.77-.71A2.15,2.15,0,0,1,421.67,148.38Z" style="fill:#263238"></path><path d="M407.58,151.89a1.74,1.74,0,0,1-1.57,1.83,1.63,1.63,0,0,1-1.8-1.51,1.73,1.73,0,0,1,1.57-1.82A1.62,1.62,0,0,1,407.58,151.89Z" style="fill:#263238"></path><path d="M419.81,152.3a1.74,1.74,0,0,1-1.57,1.83,1.64,1.64,0,0,1-1.8-1.51,1.74,1.74,0,0,1,1.57-1.83A1.64,1.64,0,0,1,419.81,152.3Z" style="fill:#263238"></path><polygon points="406.41 157.42 411.72 160.01 412.9 149.74 406.41 157.42" style="fill:#9a4a4d"></polygon><path d="M414,172.79c6.42-.59,12.58-2.63,14-5.55a5.8,5.8,0,0,1-2.62,4.7c-3.67,2.11-11.58,3.12-11.58,3.12Z" style="fill:#9a4a4d"></path></g><g id="freepik--arm--inject-678"><path d="M410.06,204.3c-3.15-2.35-4.74-3.26-6.21-3.68s-6.63-2.56-8.6-3.05c-1.26-.31-1.76,1.68-.17,3.05,1.23,1.06,4.43,2.44,5.83,3.21s4.16,4.11,4.16,4.11Z" style="fill:#9a4a4d"></path><path d="M454.37,189c-3.13-6.66-5.79-7.3-13.36-8.18-7.11,6.94-1.34,22.47-1.34,22.47l3.81,18.7s-18.85-5.07-21-6.43-7.86-7.52-9.77-9.36c-2.62-2.51-3.91-2.17-5.24-2-4.35.65-5.3,1-6.22,1.6a2,2,0,0,0-.85,1.69c-1.15.15-2.88.11-3.1,2a5.2,5.2,0,0,0-.07,1.52,1.23,1.23,0,0,0-.75.43c-1,1.11.69,5,1.73,5.9a3.76,3.76,0,0,0,3.16.55c1.17-.15.63-1.34.63-1.34l1.63.09c3.54,2.51,3.72,7.49,8.39,8.59a31.18,31.18,0,0,1,5.71,1.11c10.06,3.38,26.56,13.62,35.53,14.39,8.75.76,8.5-3.91,8.64-9.27C462,226.68,457.49,195.61,454.37,189Z" style="fill:#b16668"></path><path d="M443.11,220.12l.37,1.83c4,1,8.29,3.89,9.25,6.07C452,224.57,450.12,222,443.11,220.12Z" style="fill:#9a4a4d"></path><path d="M400.42,207.48l5.17-1-5.06.33A2,2,0,0,0,400.42,207.48Z" style="fill:#9a4a4d"></path><path d="M397.25,211l5.94-.78-5.95.09A3.22,3.22,0,0,0,397.25,211Z" style="fill:#9a4a4d"></path><path d="M398,213.62a1.88,1.88,0,0,0,.8.7,4,4,0,0,0,1,.34l-.08,0c.16.31.33.61.5.92l.12-.16a1.2,1.2,0,0,0-.94.23,1.66,1.66,0,0,0-.52.77,1.85,1.85,0,0,1,.6-.64,1.23,1.23,0,0,1,.81-.15l.23,0-.11-.21c-.16-.31-.32-.62-.5-.92l0-.05h-.05a4.84,4.84,0,0,1-1-.27A2.22,2.22,0,0,1,398,213.62Z" style="fill:#9a4a4d"></path><path d="M399.61,214.39a18.85,18.85,0,0,0,2.15.15,2.4,2.4,0,0,0,.74,1.14,11.17,11.17,0,0,0,1.15,1l-1.63-.09a2.66,2.66,0,0,0-1.88-1Z" style="fill:#9a4a4d"></path></g></g></g></g></svg>